<?xml version="1.0" encoding="UTF-8"?>
<svg xmlns="http://www.w3.org/2000/svg" width="900"
height="900" stroke="#000" stroke-width="4" fill="none">
<rect x="4" y="4" width="892" height="892" fill="white" />
<path stroke-width="1" stroke="#ccc" d="M 101.46952,2.2048146 V 898.59519 m 99.26471,0 V 2.2048146 m 198.52941,0 V 898.59519 m 99.26471,0 V 2.2048146 m 198.52942,0 V 898.59519 m 99.2647,0 V 2.2048146 M 898.5952,796.32248 H 2.2048146 m 0,-99.26472 H 898.5952 m 0,-198.5294 H 2.2048146 m 0,-99.26471 H 898.5952 m 0,-198.52942 H 2.2048146 m 0,-99.26471 H 898.5952 m 0,-99.2647054 H 2.2048146"/>
<rect x="4" y="4" width="892" height="892" />
<path d="M 299.99893,2.2048146 V 896.59519 m 297.79412,0 V 2.2048146 M 896.5952,299.99894 H 2.2048146 m 0,297.79411 H 896.5952"/>
</svg>
