<?xml version="1.0" encoding="UTF-8" standalone="no"?>
<!-- Created with Inkscape (http://www.inkscape.org/) -->

<svg
   width="210mm"
   height="210mm"
   viewBox="0 0 210 210"
   version="1.1"
   id="svg1292"
   xmlns="http://www.w3.org/2000/svg"
   xmlns:svg="http://www.w3.org/2000/svg">
  <defs
     id="defs1289" />
  <g
     id="layer1"
     transform="translate(152.91577,173.82525)">
    <path
       d="m -152.91577,-173.82525 h 210 v 210 h -210 z"
       style="fill:#8f1056;fill-opacity:1;fill-rule:nonzero;stroke:none;stroke-width:0.110269"
       id="path20" />
    <path
       d="M -148.54341,28.280415 V -155.67748 c 0,-0.19154 0.0127,-0.38122 0.0381,-0.56906 0.0254,-0.18787 0.0631,-0.37026 0.11292,-0.5472 0.0499,-0.17697 0.11099,-0.34504 0.18338,-0.50431 0.0724,-0.15923 0.15465,-0.30657 0.24678,-0.44199 0.0921,-0.13553 0.19237,-0.25637 0.30071,-0.36277 0.10833,-0.10642 0.22269,-0.19625 0.34307,-0.26955 0.12038,-0.0733 0.24446,-0.12862 0.37225,-0.16599 0.1278,-0.0373 0.25684,-0.056 0.38714,-0.056 H 51.34928 c 0.130285,0 0.259334,0.0187 0.387122,0.056 0.127787,0.0373 0.251858,0.0927 0.372245,0.16599 0.120379,0.0734 0.23473,0.16318 0.343069,0.26959 0.10834,0.10642 0.208577,0.22727 0.300719,0.36273 0.09213,0.13538 0.174397,0.28276 0.246778,0.44199 0.07239,0.15927 0.133537,0.32734 0.183388,0.50428 0.04986,0.17697 0.08751,0.35936 0.112929,0.5472 0.0254,0.18787 0.03811,0.37755 0.03813,0.56909 V 28.280415 c -1.7e-5,0.191509 -0.01273,0.381176 -0.03813,0.569028 -0.02542,0.187888 -0.06307,0.370286 -0.112929,0.547209 -0.04985,0.176947 -0.110998,0.344999 -0.183388,0.504223 -0.07238,0.159301 -0.154643,0.30663 -0.246778,0.442048 -0.09214,0.135453 -0.192379,0.256373 -0.300702,0.362782 -0.108348,0.106364 -0.222707,0.196212 -0.343086,0.269516 -0.120387,0.07327 -0.244458,0.128662 -0.372245,0.165995 -0.127788,0.03733 -0.256837,0.05605 -0.387122,0.05608 h -197.90831 c -0.1303,-3.6e-5 -0.25934,-0.01867 -0.38714,-0.05608 -0.12779,-0.03733 -0.25187,-0.09273 -0.37225,-0.165995 -0.12038,-0.07331 -0.23474,-0.163146 -0.34307,-0.269516 -0.10834,-0.106409 -0.20858,-0.227327 -0.30071,-0.362782 -0.0921,-0.135425 -0.17439,-0.282747 -0.24678,-0.442048 -0.0724,-0.159224 -0.13352,-0.327276 -0.18338,-0.504223 -0.0499,-0.176923 -0.0875,-0.359321 -0.11292,-0.547209 -0.0254,-0.187852 -0.0381,-0.377531 -0.0381,-0.569028 z"
       style="fill:#f6dad4;fill-opacity:1;fill-rule:nonzero;stroke:none;stroke-width:0.320781"
       id="path30" />
    <path
       d="M -148.54341,28.280415 V -155.67748 c 0,-0.19154 0.0127,-0.38122 0.0381,-0.56906 0.0254,-0.18787 0.0631,-0.37026 0.11292,-0.5472 0.0499,-0.17697 0.11099,-0.34504 0.18338,-0.50431 0.0724,-0.15923 0.15465,-0.30657 0.24678,-0.44199 0.0921,-0.13553 0.19237,-0.25637 0.30071,-0.36277 0.10833,-0.10642 0.22269,-0.19625 0.34307,-0.26955 0.12038,-0.0733 0.24446,-0.12862 0.37225,-0.16599 0.1278,-0.0373 0.25684,-0.056 0.38714,-0.056 H 51.34928 c 0.130285,0 0.259334,0.0187 0.387122,0.056 0.127787,0.0373 0.251858,0.0927 0.372245,0.16599 0.120379,0.0734 0.23473,0.16318 0.343069,0.26959 0.10834,0.10642 0.208577,0.22727 0.300719,0.36273 0.09213,0.13538 0.174397,0.28276 0.246778,0.44199 0.07239,0.15927 0.133537,0.32734 0.183388,0.50428 0.04986,0.17697 0.08751,0.35936 0.112929,0.5472 0.0254,0.18787 0.03811,0.37755 0.03813,0.56909 V 28.280415 c -1.7e-5,0.191509 -0.01273,0.381177 -0.03813,0.569026 -0.02542,0.187889 -0.06307,0.370289 -0.112929,0.547211 -0.04985,0.176948 -0.110998,0.344998 -0.183388,0.504224 -0.07238,0.159299 -0.154643,0.306628 -0.246778,0.442046 -0.09214,0.135454 -0.192379,0.256375 -0.300702,0.362782 -0.108348,0.106363 -0.222707,0.196212 -0.343086,0.269516 -0.120387,0.07327 -0.244458,0.128663 -0.372245,0.165997 -0.127788,0.03733 -0.256837,0.05605 -0.387122,0.05608 h -197.90831 c -0.1303,-3.7e-5 -0.25934,-0.01867 -0.38714,-0.05608 -0.12779,-0.03733 -0.25187,-0.09273 -0.37225,-0.165997 -0.12038,-0.07331 -0.23474,-0.163145 -0.34307,-0.269516 -0.10834,-0.106407 -0.20858,-0.227326 -0.30071,-0.362782 -0.0921,-0.135423 -0.17439,-0.282747 -0.24678,-0.442046 -0.0724,-0.159226 -0.13352,-0.327276 -0.18338,-0.504224 -0.0499,-0.176922 -0.0875,-0.359322 -0.11292,-0.547211 -0.0254,-0.187849 -0.0381,-0.377529 -0.0381,-0.569026 z"
       style="fill:none;stroke:#ffffff;stroke-width:2;stroke-linecap:butt;stroke-linejoin:miter;stroke-miterlimit:10;stroke-dasharray:none;stroke-opacity:1"
       id="path32" />
    <path
       d="M -144.17778,-147.34957 H 48.968031 v 0.26459 H -144.17778 Z"
       style="fill:#731752;fill-opacity:1;fill-rule:nonzero;stroke:none;stroke-width:0.264583"
       id="path34" />
    <text
       style="font-variant:normal;font-weight:bold;font-size:7.40833px;font-family:'Liberation Sans';-inkscape-font-specification:LiberationSans-Bold;writing-mode:lr-tb;fill:#ffffff;fill-opacity:1;fill-rule:nonzero;stroke:none;stroke-width:0.264583"
       id="text136"
       x="-69.288307"
       y="-162.16623"><tspan
         x="-69.288307 -63.525867 -58.1758 -52.004612 -47.063313 -45.005039 -40.06374 -35.538433 -30.868435"
         y="-162.16623"
         id="tspan134"
         style="stroke-width:0.264583">GAME PLAY</tspan></text>
    <text
       style="font-variant:normal;font-weight:bold;font-size:5.55625px;font-family:'Liberation Sans';-inkscape-font-specification:LiberationSans-Bold;writing-mode:lr-tb;fill:#731752;fill-opacity:1;fill-rule:nonzero;stroke:none;stroke-width:0.264583"
       id="text140"
       x="-144.1778"
       y="-149.46623"><tspan
         x="-144.1778 -139.85596 -138.31226 -134.60628 -133.06258 -129.05003 -124.7282 -123.39068 -119.58433 -118.04063 -114.02808 -110.6341 -106.62156"
         y="-149.46623"
         id="tspan138"
         style="stroke-width:0.264583">GIVING A CLUE</tspan></text>
    <text
       style="font-variant:normal;font-weight:normal;font-size:3.70417px;font-family:'Liberation Sans';-inkscape-font-specification:LiberationSans;writing-mode:lr-tb;fill:#333333;fill-opacity:1;fill-rule:nonzero;stroke:none;stroke-width:0.264583"
       id="text144"
       x="-144.1778"
       y="-142.32248"><tspan
         x="-144.1778 -143.14865 -142.11952 -141.09038 -139.2383 -137.17822 -135.11813 -134.089 -132.02892 -130.79541 -128.73532 -127.70618 -126.67704 -124.61697 -122.55688 -121.52775 -119.67567 -117.61558 -115.7635 -112.67789 -110.61782 -108.76574 -107.7366 -105.67652 -104.64738 -103.61825 -102.58912 -100.73702 -98.676949 -96.616859 -95.58773 -93.527657 -92.294136 -90.234047 -89.204918 -88.175774 -86.942268 -85.090187 -84.267235 -82.207153 -80.147072 -79.117943 -78.088799 -76.028717 -74.99958 -73.970444 -71.91037 -71.087418 -69.027344 -67.175247 -66.146118 -64.086037 -63.056904 -62.027767 -59.967686 -58.938557 -56.878475 -54.818394 -52.758312 -51.524792 -48.849766 -46.789684 -45.556164 -43.496082 -42.466953 -40.614864 -39.79192 -37.731838 -35.671757 -34.64262 -33.613483 -31.553402 -29.493328 -28.464191 -27.435055 -26.201534 -24.141453 -23.318508 -21.258427 -20.22929 -18.169209 -16.317127 -15.287991 -14.258854 -12.198772 -11.16964 -9.3175545 -7.2574725 -4.1718745 -2.1117933 -1.0826565 0.97742498 2.0065577 3.0356944 4.0648313 6.1249127 8.1849937 9.2141304 11.88916 13.94924 15.182756 17.242838 19.094921 20.124067 21.976151 24.036221 26.096291 27.329828 28.358953 29.388079 31.448172 33.508263 36.593842 37.622986 38.445923"
         y="-142.32248"
         id="tspan142"
         style="stroke-width:0.264583">If you are the spymaster, you are trying to think of a one-word clue that relates to some of the words your team is</tspan></text>
    <text
       style="font-variant:normal;font-weight:normal;font-size:3.70417px;font-family:'Liberation Sans';-inkscape-font-specification:LiberationSans;writing-mode:lr-tb;fill:#333333;fill-opacity:1;fill-rule:nonzero;stroke:none;stroke-width:0.264583"
       id="text148"
       x="-144.1778"
       y="-137.03082"><tspan
         x="-144.1778 -143.14865 -141.91515 -140.06305 -139.24011 -137.18002 -135.11995 -134.09081 -133.06168 -131.00159 -129.97246 -127.91238 -125.85229 -123.79221 -121.94013 -120.08804 -119.05891 -118.02976 -114.53359 -112.47352 -110.41344 -108.35336 -107.32423 -105.47215 -103.41206 -101.35198 -100.32284 -99.293709 -97.23362 -96.410683 -94.350594 -92.498512 -91.469383 -89.617302 -87.557213 -85.497139 -84.467995 -82.407913 -80.347832 -78.49575 -76.435669 -75.406532 -73.346451 -72.317322 -70.25724 -68.197151 -66.137077 -64.077003 -63.047863 -61.195782 -60.372837 -58.31274 -56.252674 -55.223537 -54.194401 -52.342312 -50.282238 -48.222157 -47.19302 -46.370068 -44.309986 -42.249912 -40.189831 -39.160694 -38.131557 -37.308605 -36.279476 -35.25034 -34.427387 -32.367306 -31.338169 -29.278095 -28.248959 -27.219822 -25.15974 -23.099659 -22.070522 -20.010441 -17.950359 -15.890278 -13.8302 -13.007252 -11.978115 -11.0159 -8.8852806 -6.8251987 -4.765121 -3.7359846 -1.675903 -0.85295451 0.99912679 3.0592082 4.0883451 5.9404263 8.0005074 9.029644 10.058781 11.087917 13.147999 15.208078 16.237215 18.297295 20.357376 23.442976 25.503046 27.563137 28.592262 29.62141 30.650557 33.325577 35.385647 36.208603 38.060688 40.120777 41.149902 42.179031 44.23912 45.062077 45.885014"
         y="-137.03082"
         id="tspan146"
         style="stroke-width:0.264583">trying to guess. When you think you have a good clue, you input it into the panel. You also set the number, which tells</tspan></text>
    <text
       style="font-variant:normal;font-weight:normal;font-size:3.70417px;font-family:'Liberation Sans';-inkscape-font-specification:LiberationSans;writing-mode:lr-tb;fill:#333333;fill-opacity:1;fill-rule:nonzero;stroke:none;stroke-width:0.264583"
       id="text152"
       x="-144.1778"
       y="-131.73915"><tspan
         x="-144.1778 -142.32571 -140.26562 -138.20555 -136.97203 -135.9429 -134.91376 -132.85368 -130.79359 -127.70798 -124.62238 -122.56231 -121.53318 -119.47309 -117.62101 -116.59188 -114.53179 -112.47172 -109.79668 -108.76754 -105.68194 -103.62186 -101.56179 -99.709694 -98.680565 -96.828484 -94.768394 -92.708321 -90.648247 -88.588158 -86.528084 -83.442482 -81.382401 -79.530312 -78.501167 -76.441093 -75.207581 -73.147499 -72.118362 -70.88485 -68.824768 -68.001823 -65.941742 -64.912613 -62.852528 -60.792446 -59.763317 -58.734173 -56.674091 -55.644955 -53.792873 -51.732792 -49.67271 -48.439198 -47.410061 -45.557972 -44.735027 -42.674946 -40.614864"
         y="-131.73915"
         id="tspan150"
         style="stroke-width:0.264583">your teammates how many codenames are related to your clue.</tspan></text>
    <text
       style="font-style:italic;font-variant:normal;font-weight:bold;font-size:3.70417px;font-family:'Liberation Sans';-inkscape-font-specification:LiberationSans-BoldItalic;writing-mode:lr-tb;fill:#731752;fill-opacity:1;fill-rule:nonzero;stroke:none;stroke-width:0.264583"
       id="text156"
       x="-144.1778"
       y="-122.74332"><tspan
         x="-144.1778 -141.70714 -139.64706 -137.58698 -134.29338 -132.03073 -131.00159"
         y="-122.74332"
         id="tspan154"
         style="stroke-width:0.264583">Example</tspan></text>
    <text
       style="font-style:italic;font-variant:normal;font-size:3.70417px;font-family:'Liberation Sans';-inkscape-font-specification:LiberationSans-Italic;writing-mode:lr-tb;fill:#731752;fill-opacity:1;fill-rule:nonzero;stroke:none;stroke-width:0.264583"
       id="text160"
       x="-128.93945"
       y="-122.74332"><tspan
         x="-128.93945 -127.9103 -126.88117 -124.89344 -122.21841 -120.15832 -119.12919 -117.0691 -116.03997 -115.01083 -113.15874 -111.09867 -109.03858 -107.80508 -106.77593 -104.1009 -102.04082 -100.8073 -98.747231 -96.895149 -95.866005 -93.805931 -92.572411 -90.512337 -89.483192 -86.808159 -84.133141 -81.870483 -80.841347 -78.781273 -76.721184 -74.661102 -73.631973 -71.161324 -68.690674 -66.015633 -63.544987 -62.51585 -61.486721 -59.016071 -56.955997 -55.926853 -53.866772 -52.837635 -50.777554 -49.748417 -48.71928 -47.690144 -45.630062 -43.569981 -41.717899 -39.657818 -38.628681 -36.5686 -35.335087 -33.275005 -30.599972 -29.570835 -27.510761 -25.45068 -24.421543 -23.392406 -22.158886 -20.098804 -18.038727 -16.186646 -15.157509 -14.128372 -12.276287 -10.216209 -9.1870728 -7.3349872 -5.2749057 -3.2148283 -2.1856916 -1.362743 0.69733846 2.7574198 4.8174977 5.8466344 6.875771 7.9049077 9.1384239 11.198505 13.258583 14.287722 15.316856 17.376938"
         y="-122.74332"
         id="tspan158"
         style="stroke-width:0.264583">: Two of your words are NUT and BARK. Both of these grow on trees, so you input tree: 2.</tspan></text>
    <text
       style="font-variant:normal;font-weight:normal;font-size:3.70417px;font-family:'Liberation Sans';-inkscape-font-specification:LiberationSans;writing-mode:lr-tb;fill:#333333;fill-opacity:1;fill-rule:nonzero;stroke:none;stroke-width:0.264583"
       id="text164"
       x="-144.1778"
       y="-113.74748"><tspan
         x="-144.1778 -142.04718 -139.98709 -137.92702 -136.89787 -134.8378 -133.60428 -131.54419 -130.51506 -128.45499 -127.63203 -126.80907 -124.749 -122.07397 -120.01389 -117.9538 -116.92467 -115.89553 -113.83546 -112.80631 -110.74624 -109.92329 -108.07121 -106.01113 -104.98199 -102.92191 -101.89277 -100.04069 -99.217735 -97.157661 -95.097572 -94.068443 -93.039314 -90.979225 -89.745705 -88.716576 -86.656487 -84.596413 -83.77346 -81.921379 -80.89225 -78.832169 -76.772087 -74.712013 -73.682869 -71.007843 -68.947746 -67.714241 -65.65416 -64.625023 -63.391514 -61.539425 -59.479343 -57.627262 -55.567181 -53.507099 -50.832073 -49.802937 -48.7738 -46.713718 -45.480206 -44.451069 -42.390987 -40.330906 -39.301769 -38.272633 -37.449688 -36.420551 -35.71336 -33.861271 -32.832142 -31.803005 -29.742924 -27.682842 -26.653706 -25.624569 -23.564487 -22.535351 -21.506214 -20.272701 -18.420616 -17.391479 -16.362343 -14.302261 -13.068748 -12.039612 -11.010475 -8.3354454 -6.2753634 -5.2462268 -3.1861455 -1.9526287 -0.92349207 2.1621058 4.2221875 5.4557042 7.5157857 8.5449181 9.5740547 12.455276 14.515356 15.544491 16.573627 17.396574 19.456656 21.516726 22.545872 23.575018 25.63509 27.69516 28.928698 29.957823 32.632862 34.692936 35.926449 37.986542 39.838623 40.867752 43.542789 44.365726 45.394875"
         y="-113.74748"
         id="tspan162"
         style="stroke-width:0.264583">You are allowed to give a clue for only one word (cashew: 1) but it's fun to try for two or more. Getting four words with</tspan></text>
    <text
       style="font-variant:normal;font-weight:normal;font-size:3.70417px;font-family:'Liberation Sans';-inkscape-font-specification:LiberationSans;writing-mode:lr-tb;fill:#333333;fill-opacity:1;fill-rule:nonzero;stroke:none;stroke-width:0.264583"
       id="text168"
       x="-144.1778"
       y="-108.45583"><tspan
         x="-144.1778 -142.11771 -140.05763 -137.99754 -136.96841 -135.11633 -134.29338 -132.23331 -130.17322 -129.14409 -128.32114 -126.46905 -125.43992 -123.37983 -122.3507 -120.29061 -119.46766 -117.40759 -116.37846 -114.31837 -112.46629 -110.6142 -108.55412 -105.46853 -103.40844 -102.58549 -101.76255 -99.910469 -97.85038 -94.764778 -92.704704 -90.644615 -89.615486"
         y="-108.45583"
         id="tspan166"
         style="stroke-width:0.264583">one clue is a big accomplishment.</tspan></text>
    <text
       style="font-variant:normal;font-weight:bold;font-size:5.55625px;font-family:'Liberation Sans';-inkscape-font-specification:LiberationSans-Bold;writing-mode:lr-tb;fill:#731752;fill-opacity:1;fill-rule:nonzero;stroke:none;stroke-width:0.264583"
       id="text172"
       x="-144.1778"
       y="-97.343323"><tspan
         x="-144.1778 -139.85596 -136.46199 -133.37186 -131.82816 -126.68427 -123.29031 -121.12803"
         y="-97.343323"
         id="tspan170"
         style="stroke-width:0.264583">One Word</tspan></text>
    <text
       style="font-variant:normal;font-weight:normal;font-size:3.70417px;font-family:'Liberation Sans';-inkscape-font-specification:LiberationSans;writing-mode:lr-tb;fill:#333333;fill-opacity:1;fill-rule:nonzero;stroke:none;stroke-width:0.264583"
       id="text176"
       x="-144.1778"
       y="-91.522491"><tspan
         x="-144.1778 -142.04718 -139.98709 -137.92702 -136.6935 -135.66435 -133.81227 -132.98933 -130.92924 -128.86917 -127.84002 -124.75442 -122.69434 -120.84226 -119.81312 -118.78399 -116.7239 -114.66383 -113.6347 -111.57461 -109.51453 -108.69158 -106.8395 -105.81036 -103.75028 -101.69019 -99.630119 -98.60099 -95.925957 -93.865868 -92.632362 -90.572273 -89.543144 -88.580925 -86.45031 -84.390221 -82.330139 -81.30101 -79.240929 -78.007408 -75.947327 -74.91819 -72.858109 -70.798027 -69.768898 -68.739754 -66.67968 -65.856728 -65.033783 -62.973705 -60.298687 -58.23859 -56.178516 -55.149387 -54.120243 -52.060162 -51.031025 -48.970943 -48.147999 -46.295918 -44.235836 -43.206699 -41.146618 -39.294537 -38.2654 -37.031879 -34.971798 -33.942661 -31.882587 -31.059635 -28.999554 -27.970417 -26.118336 -25.089199 -24.060062 -21.797413 -19.737331 -18.503819 -17.474678 -15.414597 -13.562515 -11.502434 -8.4168358 -6.3567538 -5.5338054 -3.4737241 -2.4445913 -1.4154545 0.64462698 2.7047083 4.7647901 5.4719815 6.5011182 7.5302548 9.3823357 11.442417 13.019581 14.048717 15.077854 16.392759 18.655413 20.715494 21.538429 23.390512 24.419661 27.505259 29.565351 31.417435 32.44656 34.506653 36.566723 37.595867 39.655937 40.685085 42.745155 43.568092 44.597237 45.626385 47.686455"
         y="-91.522491"
         id="tspan174"
         style="stroke-width:0.264583">Your clue must be only one word. You are not allowed to give extra hints. For example, don't say, &quot;This may be a bit of</tspan></text>
    <text
       style="font-variant:normal;font-weight:normal;font-size:3.70417px;font-family:'Liberation Sans';-inkscape-font-specification:LiberationSans;writing-mode:lr-tb;fill:#333333;fill-opacity:1;fill-rule:nonzero;stroke:none;stroke-width:0.264583"
       id="text180"
       x="-144.1778"
       y="-86.23082"><tspan
         x="-144.1778 -142.11771 -141.08858 -139.2365 -138.20735 -136.97385 -134.91376 -133.88463 -132.03253 -129.97246 -128.94333 -127.91418 -126.88505 -125.57014 -124.60792 -122.4773 -120.41721 -118.35714 -117.32801 -115.26792 -114.03442 -111.97433 -110.94518 -108.88511 -108.06216 -106.00208 -104.15 -103.32705 -101.26698 -99.206886 -98.177757 -95.502724 -93.442635 -91.382561 -89.322487 -87.262398 -85.202324 -82.116722 -80.056641 -78.204552 -77.175423 -76.146294 -75.117149 -74.088013 -73.380821 -71.528732 -70.499603 -68.439522 -67.61657 -64.941544 -62.881466 -61.029385 -59.177296 -58.148167 -56.088078 -55.058941 -52.998867 -52.175915 -51.146778 -50.117641 -48.057568 -47.028431 -45.999294 -43.939213 -42.910076 -41.057995 -40.028858 -38.795338 -36.735256 -35.70612 -33.854038 -31.793957"
         y="-86.23082"
         id="tspan178"
         style="stroke-width:0.264583">a stretch...&quot; You are playing Codenames. It's always a bit of a stretch.</tspan></text>
    <text
       style="font-variant:normal;font-weight:normal;font-size:3.70417px;font-family:'Liberation Sans';-inkscape-font-specification:LiberationSans;writing-mode:lr-tb;fill:#333333;fill-opacity:1;fill-rule:nonzero;stroke:none;stroke-width:0.264583"
       id="text184"
       x="-144.1778"
       y="-77.234993"><tspan
         x="-144.1778 -142.04718 -139.98709 -137.92702 -136.6935 -135.66435 -133.81227 -132.98933 -130.92924 -128.86917 -127.84002 -125.98794 -123.92786 -121.86777 -119.8077 -117.74761 -116.71848 -115.68934 -113.62926 -111.56918 -110.54005 -108.47997 -106.41988 -104.5678 -103.53867 -101.47858 -100.44946 -99.420311 -98.391182 -96.331093 -94.271019 -93.241875 -91.389793 -89.32972 -87.26963 -85.209557 -83.149467 -81.089394 -78.003792 -75.94371 -74.091629 -73.062492 -71.210411 -70.387459 -68.535378 -67.712433 -65.652351 -64.829407 -62.769337 -61.740192 -59.680111 -57.620037 -56.590893 -55.561756 -53.501675 -51.441593 -50.412457 -49.38332 -47.323246 -45.263165 -44.440212 -42.380131 -41.350994 -40.321865 -37.440639 -35.380558 -34.351429 -33.528477 -31.468395 -30.439259 -28.379177 -27.145664 -26.116528 -25.087391 -23.027309 -21.793797 -19.733715 -17.88163 -16.852493 -15.82336 -13.971275 -11.911194 -8.8255959 -6.7655139 -5.7363772 -3.8842962 -1.8242146 0.23586687 2.2959483 4.35603 6.4161077 9.501709 11.56179 13.413872 14.443008 17.118038 17.940987 18.763933 19.58688 20.616026 22.676098 24.736168 25.765314 27.617397 29.677467 31.529551 33.589642 34.823158 36.883228 38.943321 39.972446 42.032536 44.092628"
         y="-77.234993"
         id="tspan182"
         style="stroke-width:0.264583">Your clue cannot be any of the codenames visible on the table. On later turns, some codenames will be covered up,</tspan></text>
    <text
       style="font-variant:normal;font-weight:normal;font-size:3.70417px;font-family:'Liberation Sans';-inkscape-font-specification:LiberationSans;writing-mode:lr-tb;fill:#333333;fill-opacity:1;fill-rule:nonzero;stroke:none;stroke-width:0.264583"
       id="text188"
       x="-144.1778"
       y="-71.943321"><tspan
         x="-144.1778 -142.32571 -140.26562 -139.2365 -137.17641 -136.14728 -134.2952 -133.47224 -131.41217 -129.35208 -128.32295 -127.2938 -125.23373 -123.17364 -122.14451 -121.11536 -120.29243 -118.44035 -117.4112 -115.35113 -113.29104 -112.26191 -111.23277 -110.40983 -108.34974 -106.28967 -104.22958 -103.40664 -102.37749 -100.31742 -98.257332 -95.582298 -94.553169 -91.467567 -90.644615 -88.584541 -86.524467 -85.495323 -84.466194 -82.406113 -80.346024 -79.316887 -78.493942 -76.433861 -74.373779 -72.313698 -71.490753 -70.461617 -69.638672 -67.578583 -66.549454 -64.489372 -63.460247"
         y="-71.943321"
         id="tspan186"
         style="stroke-width:0.264583">so a clue that is not legal now might be legal later.</tspan></text>
    <text
       style="font-variant:normal;font-weight:bold;font-size:5.55625px;font-family:'Liberation Sans';-inkscape-font-specification:LiberationSans-Bold;writing-mode:lr-tb;fill:#731752;fill-opacity:1;fill-rule:nonzero;stroke:none;stroke-width:0.264583"
       id="text192"
       x="-144.1778"
       y="-60.830822"><tspan
         x="-144.1778 -140.16525 -136.77127 -131.83087 -128.43689 -125.34676 -123.18449 -121.64079 -118.2468 -116.39654 -114.85284 -110.531 -107.13703 -104.0469 -100.95678 -97.866661 -94.776543"
         y="-60.830822"
         id="tspan190"
         style="stroke-width:0.264583">Number of Guesses</tspan></text>
    <text
       style="font-variant:normal;font-weight:bold;font-size:3.70417px;font-family:'Liberation Sans';-inkscape-font-specification:LiberationSans-Bold;writing-mode:lr-tb;fill:#333333;fill-opacity:1;fill-rule:nonzero;stroke:none;stroke-width:0.264583"
       id="text196"
       x="-144.1778"
       y="-55.009991"><tspan
         x="-144.1778 -141.91515 -139.65248 -137.59241 -136.56326 -135.32976 -134.30061 -132.24054 -131.2114 -128.94875 -127.91961 -125.65696 -123.39429 -121.33422 -119.89271 -117.83262 -116.5991 -115.56997 -113.5099 -111.44981 -109.38973 -108.36059 -105.06699 -102.80434 -100.74427 -99.51075 -98.481606 -96.421532 -95.392387 -92.511177 -90.451088 -88.391014 -86.330925 -85.301796 -82.008202 -79.94812 -77.888039 -75.827957 -74.79882 -72.738739 -71.505234 -70.476089 -69.446953 -67.386871 -65.32679 -63.266712 -62.033207 -61.004063 -58.741405 -56.478756 -54.418674 -53.389538 -51.126888 -48.864231 -46.80415 -44.744068 -42.683994"
         y="-55.009991"
         id="tspan194"
         style="stroke-width:0.264583">The field operatives must always make at least one guess.</tspan></text>
    <text
       style="font-variant:normal;font-weight:normal;font-size:3.70417px;font-family:'Liberation Sans';-inkscape-font-specification:LiberationSans;writing-mode:lr-tb;fill:#333333;fill-opacity:1;fill-rule:nonzero;stroke:none;stroke-width:0.264583"
       id="text200"
       x="-40.827"
       y="-55.009991"><tspan
         x="-40.827 -38.35635 -36.296268 -34.444187 -33.415051 -30.740017 -29.506504 -27.446423 -25.386341 -23.32626 -22.297123 -20.237041 -18.17696 -16.116882 -14.264797 -12.412716 -11.383579 -9.3234978 -7.2634158 -5.2033343 -3.3512533 -2.3221166 -1.2929798 0.76710165 2.827183 3.8563159 4.8854527 6.9455342 8.1790504 10.239132 11.268269 12.091213 15.176813 18.262413 20.322483 22.382574 23.205511 25.265602 26.294729 28.35482 29.177757 30.754921 31.784067 32.813194 34.873283 36.933357 37.962502 38.991627 39.814583 40.843712 41.872856 42.901981 44.962074"
         y="-55.009991"
         id="tspan198"
         style="stroke-width:0.264583">Any wrong guess ends the turn immediately, but if the</tspan></text>
    <text
       style="font-variant:normal;font-weight:normal;font-size:3.70417px;font-family:'Liberation Sans';-inkscape-font-specification:LiberationSans;writing-mode:lr-tb;fill:#333333;fill-opacity:1;fill-rule:nonzero;stroke:none;stroke-width:0.264583"
       id="text204"
       x="-144.1778"
       y="-49.718319"><tspan
         x="-144.1778 -143.14865 -142.32571 -140.26562 -139.44269 -137.3826 -136.35347 -134.29338 -132.23331 -130.17322 -128.93971 -126.87962 -125.85049 -125.02753 -123.17545 -121.11536 -119.26328 -118.23415 -116.17406 -114.11399 -112.0539 -110.20182 -108.34974 -107.32061 -105.26052 -104.23139 -101.55636 -99.496284 -98.262764 -96.202675 -95.173546 -93.113457 -92.084328 -91.055183 -90.026054 -87.965981 -85.905891 -85.082939 -83.849434 -82.82029 -81.791161 -79.731079 -77.670998 -74.585403 -73.878197 -72.026123 -70.996986 -69.144913 -67.084824 -66.261871 -64.20179 -63.172665 -62.14352 -61.114391 -60.085255 -58.025173 -55.965092 -54.11301 -53.083874 -51.231792 -49.171711 -47.111629 -46.082493 -44.230412 -42.17033 -40.110249 -38.050167 -37.02103 -34.960949 -32.900867 -30.840786 -28.988705 -27.136623 -26.313671 -24.25359 -22.193516"
         y="-49.718319"
         id="tspan202"
         style="stroke-width:0.264583">field operatives guess a word of their team's color, they can keep guessing.</tspan></text>
    <text
       style="font-variant:normal;font-weight:bold;font-size:3.70417px;font-family:'Liberation Sans';-inkscape-font-specification:LiberationSans-Bold;writing-mode:lr-tb;fill:#333333;fill-opacity:1;fill-rule:nonzero;stroke:none;stroke-width:0.264583"
       id="text208"
       x="-144.1778"
       y="-40.722492"><tspan
         x="-144.1778 -141.98206 -139.71941 -137.45676 -136.42761 -134.36754 -132.30746 -130.0448 -129.01567 -126.95557 -125.72207 -123.45942 -121.19675 -120.16763 -117.90498 -115.64231 -113.58224 -111.52216 -109.46207 -108.43295 -106.17028 -103.90763 -102.8785 -100.81841 -99.584908 -98.555763 -96.495689 -94.23304 -92.172951 -91.143822 -89.910301 -88.881157 -85.587563"
         y="-40.722492"
         id="tspan206"
         style="stroke-width:0.264583">You can stop guessing at any time</tspan></text>
    <text
       style="font-variant:normal;font-weight:normal;font-size:3.70417px;font-family:'Liberation Sans';-inkscape-font-specification:LiberationSans;writing-mode:lr-tb;fill:#333333;fill-opacity:1;fill-rule:nonzero;stroke:none;stroke-width:0.264583"
       id="text212"
       x="-83.526192"
       y="-40.722492"><tspan
         x="-83.526192 -82.497063 -81.467918 -79.407837 -77.347763 -76.318626 -75.28949 -73.229408 -71.377327 -69.317253 -67.257156 -66.434212 -65.611267 -63.759197 -62.730053 -60.877972 -58.81789 -56.757801 -55.728672 -53.053638 -50.993557 -48.933483 -47.904346 -46.87521 -45.846073 -43.785992 -42.756855 -40.696774 -38.636692 -36.576611 -34.724529 -32.872448 -31.843311 -29.78323 -27.931149 -26.902012 -23.81641 -21.756329 -19.696247 -17.844166 -16.815029 -14.139999 -12.079918 -10.846401 -8.7863197 -6.934238 -5.9051013 -3.8450201 -1.9929386 -0.96380198 0.065334648 2.125416 4.1854978 5.2146306 7.0667157 9.1267967 10.978878 14.064478 16.124559 17.976643 19.005779 21.065859 22.299376 23.328522 25.180605 27.240677 28.063633 30.123705"
         y="-40.722492"
         id="tspan210"
         style="stroke-width:0.264583">, but usually you want to guess as many words as the spymaster said.</tspan></text>
    <text
       style="font-variant:normal;font-weight:normal;font-size:3.70417px;font-family:'Liberation Sans';-inkscape-font-specification:LiberationSans;writing-mode:lr-tb;fill:#333333;fill-opacity:1;fill-rule:nonzero;stroke:none;stroke-width:0.264583"
       id="text216"
       x="-144.1778"
       y="-35.43082"><tspan
         x="-144.1778 -141.70714 -139.64706 -136.56146 -134.50137 -133.47224 -132.64929 -129.56371 -127.50361 -125.65153 -124.62238 -122.7703 -120.71023 -118.65014 -117.62101 -114.53541 -113.71246 -111.65238 -109.59231 -108.56316 -107.53403 -105.47395 -103.62186 -101.56179 -99.501701 -98.472572 -95.797539 -93.73745 -91.677376 -90.648247 -89.619102 -88.589973 -86.529884 -85.500755 -83.440666 -81.380577 -79.320511 -77.468422 -75.616341"
         y="-35.43082"
         id="tspan214"
         style="stroke-width:0.264583">Sometimes you might even want to guess</tspan></text>
    <text
       style="font-variant:normal;font-weight:bold;font-size:3.70417px;font-family:'Liberation Sans';-inkscape-font-specification:LiberationSans-Bold;writing-mode:lr-tb;fill:#333333;fill-opacity:1;fill-rule:nonzero;stroke:none;stroke-width:0.264583"
       id="text220"
       x="-74.584106"
       y="-35.43082"><tspan
         x="-74.584106 -72.321449 -70.0588 -67.998718 -66.969582 -63.675991 -61.413334 -59.971821"
         y="-35.43082"
         id="tspan218"
         style="stroke-width:0.264583">one more</tspan></text>
    <text
       style="font-variant:normal;font-weight:normal;font-size:3.70417px;font-family:'Liberation Sans';-inkscape-font-specification:LiberationSans;writing-mode:lr-tb;fill:#333333;fill-opacity:1;fill-rule:nonzero;stroke:none;stroke-width:0.264583"
       id="text224"
       x="-57.911221"
       y="-35.43082"><tspan
         x="-57.911221"
         y="-35.43082"
         id="tspan222"
         style="stroke-width:0.264583">.</tspan></text>
  </g>
</svg>
