<?xml version="1.0" encoding="UTF-8" standalone="no"?>
<!-- Created with Inkscape (http://www.inkscape.org/) -->

<svg
   width="210mm"
   height="210mm"
   viewBox="0 0 210 210"
   version="1.1"
   id="svg1292"
   xmlns="http://www.w3.org/2000/svg"
   xmlns:svg="http://www.w3.org/2000/svg">
  <defs
     id="defs1289" />
  <g
     id="layer1"
     transform="translate(152.91577,173.82525)">
    <path
       d="m -152.91577,-173.82525 h 210 v 210 h -210 z"
       style="fill:#8f1056;fill-opacity:1;fill-rule:nonzero;stroke:none;stroke-width:0.110269"
       id="path20" />
    <path
       d="m -148.68244,-159.00858 v -7.9375 c 0,-0.17373 0.017,-0.34579 0.0508,-0.51618 0.0339,-0.17039 0.0841,-0.33584 0.15056,-0.49634 0.0665,-0.1605 0.14799,-0.31298 0.24451,-0.45743 0.0965,-0.14445 0.2062,-0.2781 0.32904,-0.40094 0.12284,-0.12284 0.25649,-0.23253 0.40094,-0.32904 0.14445,-0.0965 0.29693,-0.17802 0.45743,-0.24451 0.1605,-0.0665 0.32595,-0.11667 0.49634,-0.15056 0.17039,-0.0339 0.34245,-0.0508 0.51618,-0.0508 H 51.871714 c 0.173719,0 0.345762,0.0169 0.516153,0.0508 0.170383,0.0339 0.335831,0.0841 0.496333,0.15056 0.160486,0.0665 0.312962,0.14799 0.45742,0.24451 0.14445,0.0965 0.278113,0.2062 0.400956,0.32904 0.122851,0.12284 0.232529,0.25649 0.329057,0.40094 0.09652,0.14445 0.178003,0.29693 0.244492,0.45743 0.06648,0.1605 0.116671,0.32595 0.150571,0.49634 0.03389,0.17039 0.05083,0.34245 0.05085,0.51618 v 7.9375 c -1.7e-5,0.17372 -0.01696,0.34578 -0.05085,0.51617 -0.0339,0.17039 -0.08409,0.33584 -0.150571,0.49634 -0.06649,0.1605 -0.147972,0.31298 -0.244492,0.45743 -0.09653,0.14445 -0.206206,0.2781 -0.329057,0.40094 -0.122843,0.12285 -0.256506,0.23253 -0.400956,0.32904 -0.144458,0.0965 -0.296934,0.17802 -0.45742,0.24451 -0.160502,0.0665 -0.32595,0.11667 -0.496333,0.15056 -0.170391,0.0339 -0.342434,0.0508 -0.516153,0.0508 H -146.0366 c -0.17373,0 -0.34579,-0.017 -0.51618,-0.0508 -0.17039,-0.0339 -0.33584,-0.0841 -0.49634,-0.15056 -0.1605,-0.0665 -0.31298,-0.14799 -0.45743,-0.24451 -0.14445,-0.0965 -0.2781,-0.20619 -0.40094,-0.32904 -0.12284,-0.12284 -0.23253,-0.25649 -0.32904,-0.40094 -0.0965,-0.14445 -0.17802,-0.29693 -0.24451,-0.45743 -0.0665,-0.1605 -0.11667,-0.32595 -0.15056,-0.49634 -0.0339,-0.17039 -0.0508,-0.34245 -0.0508,-0.51617 z"
       style="fill:#191d30;fill-opacity:1;fill-rule:nonzero;stroke:none;stroke-width:0.264583"
       id="path22" />
    <path
       d="M -148.02098,29.175648 V -139.3008 c 0,-0.13874 0.0127,-0.27615 0.0381,-0.41222 0.0254,-0.13608 0.0631,-0.26821 0.11292,-0.39639 0.0499,-0.12818 0.11099,-0.24996 0.18338,-0.36531 0.0724,-0.11536 0.15465,-0.2221 0.24678,-0.3202 0.0921,-0.0981 0.19237,-0.18569 0.30071,-0.26277 0.10833,-0.0771 0.22269,-0.14217 0.34307,-0.19527 0.12038,-0.0531 0.24446,-0.0932 0.37225,-0.12024 0.1278,-0.0271 0.25684,-0.0406 0.38714,-0.0406 H 51.871714 c 0.130285,0 0.259334,0.0135 0.387121,0.0406 0.127788,0.0271 0.251858,0.0672 0.372246,0.12024 0.120379,0.0531 0.23473,0.11818 0.343069,0.19527 0.108339,0.0771 0.208576,0.16467 0.300719,0.26277 0.09213,0.0981 0.174396,0.20484 0.246778,0.3202 0.07239,0.11535 0.133536,0.23713 0.183388,0.36531 0.04986,0.12818 0.08751,0.26031 0.112928,0.39639 0.0254,0.13607 0.03811,0.27348 0.03813,0.41222 V 29.175648 c -1.7e-5,0.138729 -0.01273,0.276142 -0.03813,0.412213 -0.02542,0.136052 -0.06307,0.268165 -0.112928,0.396365 -0.04985,0.128172 -0.110998,0.249935 -0.183388,0.365298 -0.07238,0.115361 -0.154644,0.222113 -0.246778,0.320219 -0.09214,0.0981 -0.19238,0.185674 -0.300702,0.262766 -0.108348,0.07709 -0.222707,0.142173 -0.343086,0.195274 -0.120388,0.0531 -0.244458,0.09318 -0.372246,0.120248 -0.127787,0.02708 -0.256836,0.04061 -0.387121,0.04061 H -146.0366 c -0.1303,0 -0.25934,-0.01352 -0.38714,-0.04061 -0.12779,-0.02707 -0.25187,-0.06715 -0.37225,-0.120248 -0.12038,-0.0531 -0.23474,-0.118192 -0.34307,-0.195256 -0.10834,-0.07709 -0.20858,-0.164686 -0.30071,-0.262784 -0.0921,-0.0981 -0.17439,-0.204858 -0.24678,-0.320219 -0.0724,-0.115363 -0.13352,-0.237126 -0.18338,-0.365298 -0.0499,-0.1282 -0.0875,-0.260313 -0.11292,-0.396383 -0.0254,-0.13607 -0.0381,-0.273466 -0.0381,-0.412195 z"
       style="fill:#f6dad4;fill-opacity:1;fill-rule:nonzero;stroke:none;stroke-width:0.273023"
       id="path24" />
    <path
       d="m -148.02098,29.03364 v -168.3362 c 0,-0.13863 0.0127,-0.27592 0.0381,-0.41188 0.0254,-0.13597 0.0631,-0.26798 0.11292,-0.39606 0.0499,-0.12807 0.11099,-0.24974 0.18338,-0.365 0.0724,-0.11527 0.15465,-0.22191 0.24678,-0.31993 0.0921,-0.098 0.19237,-0.18554 0.30071,-0.26256 0.10833,-0.077 0.22269,-0.14205 0.34307,-0.1951 0.12038,-0.0531 0.24446,-0.0931 0.37225,-0.12014 0.1278,-0.027 0.25684,-0.0405 0.38714,-0.0405 H 51.871714 c 0.130285,0 0.259334,0.0135 0.387121,0.0405 0.127788,0.027 0.251858,0.0671 0.372246,0.12014 0.120379,0.0531 0.23473,0.11808 0.343069,0.1951 0.108339,0.077 0.208576,0.16454 0.300719,0.26256 0.09213,0.098 0.174396,0.20466 0.246778,0.31993 0.07239,0.11526 0.133536,0.23693 0.183388,0.365 0.04986,0.12808 0.08751,0.26009 0.112928,0.39606 0.0254,0.13596 0.03811,0.27325 0.03813,0.41188 v 168.3362 c -1.7e-5,0.138614 -0.01273,0.275913 -0.03813,0.41187 -0.02542,0.135939 -0.06307,0.267942 -0.112928,0.396035 -0.04985,0.128066 -0.110998,0.249727 -0.183388,0.364994 -0.07238,0.115265 -0.154644,0.221929 -0.246778,0.319953 -0.09214,0.09802 -0.19238,0.185519 -0.300702,0.262546 -0.108348,0.07703 -0.222707,0.142056 -0.343086,0.195113 -0.120388,0.05306 -0.244458,0.0931 -0.372246,0.120147 -0.127787,0.02706 -0.256836,0.04058 -0.387121,0.04058 H -146.0366 c -0.1303,0 -0.25934,-0.01351 -0.38714,-0.04058 -0.12779,-0.02705 -0.25187,-0.06709 -0.37225,-0.120147 -0.12038,-0.05306 -0.23474,-0.118095 -0.34307,-0.195095 -0.10834,-0.07703 -0.20858,-0.164548 -0.30071,-0.262564 -0.0921,-0.09802 -0.17439,-0.204688 -0.24678,-0.319953 -0.0724,-0.115267 -0.13352,-0.236928 -0.18338,-0.364994 -0.0499,-0.128093 -0.0875,-0.260096 -0.11292,-0.396053 -0.0254,-0.135956 -0.0381,-0.273238 -0.0381,-0.411852 z"
       style="fill:none;stroke:#ffffff;stroke-width:2;stroke-linecap:butt;stroke-linejoin:miter;stroke-miterlimit:10;stroke-dasharray:none;stroke-opacity:1"
       id="path26" />
    <path
       d="M -143.65535,-28.578216 H 49.490464 v 0.264584 H -143.65535 Z"
       style="fill:#731752;fill-opacity:1;fill-rule:nonzero;stroke:none;stroke-width:0.264583"
       id="path28" />
    <text
       style="font-variant:normal;font-weight:bold;font-size:9.26042px;font-family:'Liberation Sans';-inkscape-font-specification:LiberationSans-Bold;writing-mode:lr-tb;fill:#ffffff;fill-opacity:1;fill-rule:nonzero;stroke:none;stroke-width:0.264583"
       id="text44"
       x="-144.4491"
       y="-159.80234"><tspan
         x="-144.4491 -137.76154 -130.55849 -123.8709 -117.69427 -111.00671 -104.31913 -96.605125 -90.428505"
         y="-159.80234"
         id="tspan42"
         style="stroke-width:0.264583">CODENAMES</tspan></text>
    <text
       style="font-variant:normal;font-weight:bold;font-size:7.40833px;font-family:'Liberation Sans';-inkscape-font-specification:LiberationSans-Bold;writing-mode:lr-tb;fill:#ffffff;fill-opacity:1;fill-rule:nonzero;stroke:none;stroke-width:0.264583"
       id="text48"
       x="-59.435177"
       y="-144.98567"><tspan
         x="-59.435177 -54.493877 -49.552578 -45.027275 -39.677212"
         y="-144.98567"
         id="tspan46"
         style="stroke-width:0.264583">SETUP</tspan></text>
    <text
       style="font-variant:normal;font-weight:bold;font-size:5.55625px;font-family:'Liberation Sans';-inkscape-font-specification:LiberationSans-Bold;writing-mode:lr-tb;fill:#731752;fill-opacity:1;fill-rule:nonzero;stroke:none;stroke-width:0.264583"
       id="text52"
       x="-143.65535"
       y="-132.28568"><tspan
         x="-143.65535 -140.67375 -137.58363 -134.49352 -129.55312"
         y="-132.28568"
         id="tspan50"
         style="stroke-width:0.264583">Teams</tspan></text>
    <text
       style="font-variant:normal;font-weight:normal;font-size:3.70417px;font-family:'Liberation Sans';-inkscape-font-specification:LiberationSans;writing-mode:lr-tb;fill:#333333;fill-opacity:1;fill-rule:nonzero;stroke:none;stroke-width:0.264583"
       id="text56"
       x="-143.65535"
       y="-126.46484"><tspan
         x="-143.65535 -141.18471 -140.36176 -138.30168 -136.4496 -134.38951 -133.15599 -131.30391 -130.27478 -128.4227 -126.36261 -125.53967 -124.71672 -123.68758 -122.65845 -120.59837 -118.53828 -117.50915 -116.6862 -114.62612 -113.59698 -111.5369 -110.50777 -109.47863 -106.8036 -104.74352 -103.71439 -102.68525 -100.62517 -98.565086 -95.479485 -93.627403 -92.598267 -90.538185 -89.509048 -88.479912 -86.627831 -85.804886 -82.719284 -81.896339 -81.073387 -79.013313 -77.779793 -76.750656 -74.898575 -74.07563 -72.223541 -70.16346 -69.134331 -67.074249 -65.014168 -62.954086 -61.92495 -60.072865 -58.220783 -57.397835 -56.574886 -55.751942 -54.722805 -53.76059 -51.629971 -49.569889 -47.509808 -46.480675 -44.420593 -42.360512 -40.30043 -38.240349 -37.211212 -35.151134 -34.121998 -33.092861 -32.269913 -30.209833 -28.149752 -26.297668 -25.268532 -24.239397 -23.21026 -21.150179 -19.090099 -17.856583 -16.827446 -14.767365 -13.944419 -11.884337 -10.032254 -7.9721737 -6.7386575 -4.8865743 -3.8574383 -2.6239219 -1.5947858 1.0802445 3.1403253 4.1694613 5.1985974 7.2586784 9.318759 12.404359 14.256442 15.285578 17.345659 18.374794 19.403931 20.433067 23.108097 25.168188 26.401684 27.43083 28.459976 30.520048 31.753563 32.782688"
         y="-126.46484"
         id="tspan54"
         style="stroke-width:0.264583">Players split up into two teams of similar size and skill. You need at least four players (two teams of two) for a</tspan></text>
    <text
       style="font-variant:normal;font-weight:normal;font-size:3.70417px;font-family:'Liberation Sans';-inkscape-font-specification:LiberationSans;writing-mode:lr-tb;fill:#333333;fill-opacity:1;fill-rule:nonzero;stroke:none;stroke-width:0.264583"
       id="text60"
       x="-143.65535"
       y="-121.17317"><tspan
         x="-143.65535 -141.80327 -140.77414 -138.71405 -136.65398 -134.59389 -132.53381 -131.30029 -129.24022 -128.21107 -126.151 -124.09092 -121.00532 -118.94524"
         y="-121.17317"
         id="tspan58"
         style="stroke-width:0.264583">standard game.</tspan></text>
    <text
       style="font-variant:normal;font-weight:normal;font-size:3.70417px;font-family:'Liberation Sans';-inkscape-font-specification:LiberationSans;writing-mode:lr-tb;fill:#333333;fill-opacity:1;fill-rule:nonzero;stroke:none;stroke-width:0.264583"
       id="text64"
       x="-143.65535"
       y="-112.17734"><tspan
         x="-143.65535 -141.18471 -139.12462 -137.27254 -135.21246 -134.18332 -133.15419 -131.0941 -129.03403 -125.94843 -124.91929 -123.06721 -121.00713 -118.94704 -116.88696 -115.03488 -112.9748 -111.12272 -110.09358 -108.0335 -105.97342 -103.91334 -102.8842 -100.82412 -100.00117 -97.941093 -96.089012 -94.028931 -92.79541 -91.766281 -90.737144 -88.677063 -87.647926 -85.587845 -83.527763 -82.498627 -81.46949 -79.409409 -77.349327 -76.526382 -75.292862 -74.263733 -72.411644 -70.351562 -68.499481 -65.413879 -63.353802 -61.50172 -60.472584 -58.412502 -57.383366 -56.354229 -55.325092 -52.854443 -50.794361 -49.765228 -47.705147 -46.67601 -44.823925 -42.763847 -40.911762 -37.826164 -35.766083 -33.913998 -32.884865 -30.824781 -29.591267 -27.739183 -26.710047 -24.857964 -23.828827 -21.768747 -19.708666 -17.648584 -15.796502 -14.767365 -12.707285 -10.647204 -8.7951212 -7.765985 -6.7368488 -5.7077127 -3.6476319 -2.6184959 -0.55841506 1.5016657 3.5617466 5.6218276 6.4447746 7.4739103 9.5339918 10.563128 11.592263 12.6214 14.68148 16.741562 17.770697 19.830778 21.890869 23.950939 24.980085 27.040157 28.069304 29.098429 30.127554 32.187645 34.247738 35.276863 36.51038 38.57045 40.630539 43.716141"
         y="-112.17734"
         id="tspan62"
         style="stroke-width:0.264583">Each team chooses one player to be their spymaster. Both spymasters stands next to panel at the end of the room.</tspan></text>
    <text
       style="font-variant:normal;font-weight:normal;font-size:3.70417px;font-family:'Liberation Sans';-inkscape-font-specification:LiberationSans;writing-mode:lr-tb;fill:#333333;fill-opacity:1;fill-rule:nonzero;stroke:none;stroke-width:0.264583"
       id="text68"
       x="-143.65535"
       y="-106.88567"><tspan
         x="-143.65535 -141.3927 -139.33263 -137.27254 -136.24341 -134.18332 -133.15419 -131.0941 -129.03403 -127.80051 -126.77137 -124.71129 -123.88834 -121.82826 -119.97618 -117.9161 -116.68258 -114.8305 -113.80137 -112.97842 -112.15547 -110.09539 -108.03531 -107.00617 -104.94609 -102.88601 -101.85687 -99.796791 -97.736717 -95.676636 -94.443115 -93.413979 -92.384842 -90.32476 -88.264679 -87.23555 -85.175468 -83.115387 -81.055305 -79.821785 -77.761703 -76.732574 -75.909622 -73.849541 -72.820404 -71.791267 -69.731194 -67.671112 -66.641975 -64.789886 -62.729809 -60.669727 -59.640591 -57.580513 -56.551376 -55.52224 -54.560024 -52.297371 -50.237289 -48.177212 -46.325127 -45.29599 -43.235909 -42.002396 -39.942314 -38.913177 -37.884041 -37.061092 -35.001015 -34.178066 -32.117985 -31.088848 -29.028769 -26.968687 -24.908606 -23.675091 -21.615009 -20.585873 -19.762926 -17.910843 -15.850762 -13.998679"
         y="-106.88567"
         id="tspan66"
         style="stroke-width:0.264583">The other players line up near the board in the center. They are field operatives.</tspan></text>
    <text
       style="font-variant:normal;font-weight:bold;font-size:5.55625px;font-family:'Liberation Sans';-inkscape-font-specification:LiberationSans-Bold;writing-mode:lr-tb;fill:#731752;fill-opacity:1;fill-rule:nonzero;stroke:none;stroke-width:0.264583"
       id="text72"
       x="-143.65535"
       y="-95.77317"><tspan
         x="-143.65535 -139.64281 -136.24883 -133.15871 -129.76472 -127.91446 -126.37075 -123.28063 -120.19051 -118.02824 -114.63425"
         y="-95.77317"
         id="tspan70"
         style="stroke-width:0.264583">Agent cards</tspan></text>
    <text
       style="font-variant:normal;font-weight:normal;font-size:3.70417px;font-family:'Liberation Sans';-inkscape-font-specification:LiberationSans;writing-mode:lr-tb;fill:#333333;fill-opacity:1;fill-rule:nonzero;stroke:none;stroke-width:0.264583"
       id="text76"
       x="-143.65535"
       y="-89.952339"><tspan
         x="-143.65535 -140.98032 -138.92024 -136.86017 -135.83102 -133.77095 -131.71086 -129.65079 -128.62164 -126.151 -125.32805 -123.26797 -121.20789 -120.17875 -118.32667 -116.26659 -115.03307 -112.97299 -111.12091 -110.09177 -108.85825 -106.79817 -104.7381 -103.50458 -101.4445 -99.592415 -97.532333 -95.472252 -94.443115 -93.413979 -91.353897 -89.293816 -87.233734 -85.17366 -84.144524 -82.292435 -81.263298 -79.203224 -78.174088 -77.144951 -75.084869 -73.024788 -71.172707 -69.112625 -68.083488 -67.054352 -64.99427 -62.934189 -59.848591 -58.819454 -57.857239 -55.594585 -53.534504 -51.474426 -50.44529 -49.622341 -47.56226 -45.502178 -43.442101 -41.590015 -39.529934 -37.469852 -36.44072 -35.411583 -33.351501 -31.499418 -29.647335 -28.618198 -26.558119 -24.498037 -22.437956 -20.377876 -19.14436 -18.115223 -17.292276 -15.440193 -14.411057 -11.325458 -9.2653761 -8.0318604 -6.1797771 -4.1196961 -2.0596154 -1.0304792 1.0296016 2.8816848 3.9108207 5.7629042 7.8229847 8.6459322 9.4688787 11.52896 13.99961 15.028746 15.990961 18.253614 20.313694 22.373775 23.607292 25.667383 26.696508 27.519466 29.37155 30.400675 32.460766 33.283703 35.135784 37.195858 38.225002"
         y="-89.952339"
         id="tspan74"
         style="stroke-width:0.264583">Red and Blue cards represent agents of each team. The innocent bystander is marked as yellow. There is also a</tspan></text>
    <text
       style="font-variant:normal;font-weight:normal;font-size:3.70417px;font-family:'Liberation Sans';-inkscape-font-specification:LiberationSans;writing-mode:lr-tb;fill:#333333;fill-opacity:1;fill-rule:nonzero;stroke:none;stroke-width:0.264583"
       id="text80"
       x="-143.65535"
       y="-84.660675"><tspan
         x="-143.65535 -141.59528 -140.77232 -138.71225 -136.86017 -135.00807 -133.97894 -132.12686 -130.06677 -128.83327 -126.77318 -125.74405 -123.68397 -122.65483 -121.62569 -119.56561 -117.50553 -116.47639 -114.41631 -112.56423 -110.71214"
         y="-84.660675"
         id="tspan78"
         style="stroke-width:0.264583">black card of an assassin.</tspan></text>
    <text
       style="font-style:italic;font-variant:normal;font-weight:bold;font-size:4.23333px;font-family:'Liberation Sans';-inkscape-font-specification:LiberationSans-BoldItalic;writing-mode:lr-tb;fill:#731752;fill-opacity:1;fill-rule:nonzero;stroke:none;stroke-width:0.264583"
       id="text84"
       x="-118.4662"
       y="-47.354427"><tspan
         x="-118.4662 -115.40902 -112.82314 -110.46876 -107.88287 -106.47313"
         y="-47.354427"
         id="tspan82"
         style="stroke-width:0.264583">Agents</tspan></text>
    <text
       style="font-style:italic;font-variant:normal;font-weight:bold;font-size:4.23333px;font-family:'Liberation Sans';-inkscape-font-specification:LiberationSans-BoldItalic;writing-mode:lr-tb;fill:#731752;fill-opacity:1;fill-rule:nonzero;stroke:none;stroke-width:0.264583"
       id="text88"
       x="-57.4384"
       y="-47.354427"><tspan
         x="-57.4384 -54.381226 -52.026844 -49.672466 -48.262733 -45.908356 -43.322468 -40.73658 -38.382202"
         y="-47.354427"
         id="tspan86"
         style="stroke-width:0.264583">Bystander</tspan></text>
    <text
       style="font-style:italic;font-variant:normal;font-weight:bold;font-size:4.23333px;font-family:'Liberation Sans';-inkscape-font-specification:LiberationSans-BoldItalic;writing-mode:lr-tb;fill:#731752;fill-opacity:1;fill-rule:nonzero;stroke:none;stroke-width:0.264583"
       id="text92"
       x="9.0009489"
       y="-47.354427"><tspan
         x="9.0009489 12.058126 14.412504 16.766882 19.121262"
         y="-47.354427"
         id="tspan90"
         style="stroke-width:0.264583">Assassin</tspan></text>
    <text
       style="font-variant:normal;font-weight:bold;font-size:5.55625px;font-family:'Liberation Sans';-inkscape-font-specification:LiberationSans-Bold;writing-mode:lr-tb;fill:#731752;fill-opacity:1;fill-rule:nonzero;stroke:none;stroke-width:0.264583"
       id="text96"
       x="-143.65535"
       y="-30.694883"><tspan
         x="-143.65535 -139.33353 -135.32098 -130.69258 -126.9866 -125.4429 -121.12107 -117.4151 -113.70912 -109.79696 -106.09098 -104.54728 -100.8413"
         y="-30.694883"
         id="tspan94"
         style="stroke-width:0.264583">GAME OVERVIEW</tspan></text>
    <text
       style="font-variant:normal;font-weight:normal;font-size:3.70417px;font-family:'Liberation Sans';-inkscape-font-specification:LiberationSans;writing-mode:lr-tb;fill:#333333;fill-opacity:1;fill-rule:nonzero;stroke:none;stroke-width:0.264583"
       id="text100"
       x="-143.65535"
       y="-23.551132"><tspan
         x="-143.65535 -141.18471 -139.12462 -137.27254 -134.18694 -132.12686 -130.27478 -129.24564 -127.18556 -125.95204 -124.09996 -123.07082 -121.21874 -119.15866 -117.09858 -114.42355 -113.39441 -112.36528 -110.3052 -108.24512 -107.21598 -105.3639 -103.30382 -101.45173 -100.21822 -98.158134 -97.128998 -96.099861 -95.276917 -93.216835 -91.156754 -89.096672 -88.067535 -87.244591 -86.215454 -85.392509 -83.332428 -81.480339 -80.45121 -78.391129 -77.361992 -76.332855 -74.272774 -72.212692 -71.183556 -69.123474 -67.063393 -65.003311 -62.943233 -61.914097 -60.062012 -59.032879 -58.070663 -55.80801 -53.747929 -51.687847 -50.864902 -49.631386 -48.602249 -47.573112 -45.513031 -43.45295 -40.367352 -37.281754 -35.221672 -34.192535 -32.132454 -30.280371 -29.251236 -27.399153 -25.339071 -23.27899 -20.60396 -19.574823 -18.545689 -16.485607 -14.425527 -13.39639 -11.336309 -9.2762289 -7.2161479 -5.1560669 -4.1269307 -2.2748475 -1.2457116 0.81436926 2.87445 3.6973972 5.5494804 6.5786166 8.6386976 10.490781 11.519917 12.549052 14.609134 16.669214 17.492161 18.725677 19.754814 21.606897 23.666967 25.727058 27.787149 29.847219 31.907291 34.992912 37.052982 38.905064"
         y="-23.551132"
         id="tspan98"
         style="stroke-width:0.264583">Spymasters know the secret identities of 25 agents. Their teammates know the agents only by their codenames.</tspan></text>
    <text
       style="font-variant:normal;font-weight:normal;font-size:3.70417px;font-family:'Liberation Sans';-inkscape-font-specification:LiberationSans;writing-mode:lr-tb;fill:#333333;fill-opacity:1;fill-rule:nonzero;stroke:none;stroke-width:0.264583"
       id="text104"
       x="-143.65535"
       y="-14.5553"><tspan
         x="-143.65535 -141.18471 -139.12462 -137.27254 -134.18694 -132.12686 -130.27478 -129.24564 -127.18556 -125.95204 -124.09996 -123.07082 -122.04169 -119.98161 -118.12952 -116.06944 -115.04031 -114.01117 -111.95109 -110.71758 -108.65749 -106.80541 -105.77628 -103.71619 -102.89325 -101.04116 -100.21822 -98.158134 -96.098053 -95.068916 -93.008835 -90.948753 -88.888672 -87.655159 -84.980125 -82.920052 -81.686531 -79.62645 -78.597313 -76.745232 -75.922287 -73.862206 -71.802124 -69.950043 -68.920906 -68.096153 -65.82988 -64.800743 -62.948658 -62.125713 -60.065632 -58.00555 -56.976414 -53.890816 -51.830734 -49.978649 -48.949512 -47.716 -45.655918 -44.83297 -42.772888 -41.743752 -39.683674 -38.654537 -37.625401 -35.565319 -34.536182 -31.450584 -29.390503 -28.567556 -27.53842 -26.715473 -24.655392 -23.832445 -21.772364 -20.743227 -18.068197 -16.008118 -14.7746 -12.71452 -10.862436 -9.8333006 -7.7732196 -5.7131386 -4.6840029 -3.6548667 -1.5947858 0.46529499 1.494431 2.5235672 4.5836477 6.6437287 7.4666758 9.5267563 10.555893 11.518107 13.78076 15.840841 17.900923 18.930058 19.959194 20.782141 22.842211 23.665169 25.72526 26.754385 28.814478 30.874548 32.93462 34.168156 36.228226 37.257374 38.080307 39.932392 41.992462 43.844547 44.873692 45.90284 47.136333"
         y="-14.5553"
         id="tspan102"
         style="stroke-width:0.264583">Spymasters take turns giving one-word clues. A clue may relate to multiple words on the table. The field operatives try</tspan></text>
    <text
       style="font-variant:normal;font-weight:normal;font-size:3.70417px;font-family:'Liberation Sans';-inkscape-font-specification:LiberationSans;writing-mode:lr-tb;fill:#333333;fill-opacity:1;fill-rule:nonzero;stroke:none;stroke-width:0.264583"
       id="text108"
       x="-143.65535"
       y="-9.2636337"><tspan
         x="-143.65535 -142.62622 -140.56613 -139.537 -137.47691 -135.41684 -133.35677 -131.50467 -129.65259 -128.62346 -125.94843 -123.88834 -123.0654 -121.21332 -119.15324 -118.1241 -115.44907 -113.38898 -112.15547 -110.09539 -108.24331 -107.21417 -106.18504 -104.12495 -102.06487 -101.24193 -100.00841 -98.979271 -97.12719 -95.067108 -93.215027 -90.129425 -88.069344 -86.217262 -85.188126 -83.128044 -81.894531 -80.865395 -77.779793 -75.719711 -73.65963 -71.599548 -70.570412 -69.541283 -68.512146 -65.015976 -62.955894 -60.895813 -58.835732 -57.806595 -55.746513 -54.717381 -53.688244 -52.865295 -50.805214 -49.982269 -47.922188 -46.893051 -44.83297 -42.772888 -40.712807 -39.479294 -37.419212 -36.390076 -35.567127 -33.715046 -31.654964 -30.625828 -29.596691 -27.536612 -25.47653 -23.624447 -21.564367 -19.504286 -17.652203 -16.623066 -14.562985 -13.53385 -10.858819 -8.7987385 -7.5652218 -5.5051413 -4.4760051 -3.4468689 -2.417733 -0.35765213 1.7024287 2.7315648 4.7916455 6.8517265 9.9373255 11.997407 13.026543 14.260059 16.320141 18.172224 20.232304 22.292374 23.115332 24.967415 25.99654 26.819498 27.848623 29.700706 30.729853 32.581936 34.642006 36.494091 37.727627 39.787697"
         y="-9.2636337"
         id="tspan106"
         style="stroke-width:0.264583">to guess which words their spymaster meant. When a field operative touches a word, the game reveals its secret</tspan></text>
    <text
       style="font-variant:normal;font-weight:normal;font-size:3.70417px;font-family:'Liberation Sans';-inkscape-font-specification:LiberationSans;writing-mode:lr-tb;fill:#333333;fill-opacity:1;fill-rule:nonzero;stroke:none;stroke-width:0.264583"
       id="text112"
       x="-143.65535"
       y="-3.9719672"><tspan
         x="-143.65535 -142.83241 -140.77232 -138.71225 -136.65216 -135.62303 -134.80008 -133.77095 -132.19379 -131.16464 -130.13551 -129.10637 -128.07724 -127.0481 -126.01897 -123.95889 -121.8988 -120.86967 -119.84053 -119.01759 -116.9575 -116.13456 -114.07448 -113.04534 -110.98526 -108.92518 -106.8651 -105.63158 -103.5715 -102.54237 -101.71941 -99.867332 -97.807251 -95.95517 -94.926033 -92.865952 -90.80587 -88.745789 -86.893707 -85.041626 -84.012489 -82.160408 -80.100327 -78.866806 -77.633293 -75.573212 -73.72113 -72.691994 -71.869041 -70.291878 -69.262741 -68.233604 -67.204468 -65.144394 -63.084309 -61.232227 -60.203091 -57.117489 -55.057411 -53.205326 -52.176189 -50.324108 -48.264027 -46.203945 -45.174809 -44.351864 -42.291782 -40.231701 -38.171619 -37.142483 -35.082405 -33.022324 -30.962242 -29.110159 -27.258076 -26.435127 -24.375048 -22.314966 -21.28583 -20.256695 -18.196613 -16.136532 -15.107397 -14.28445 -13.461502 -12.432366 -11.403231 -9.3431492 -7.2830687 -5.4309855 -4.4018493 -3.1683331 -1.1082523 0.95182854 1.9809647 4.0410457 6.1011262 7.1302624 8.1593981 10.21948 11.248615 12.277751 13.100698 15.160779 17.22086 19.280941 21.133024 22.162149 23.191296 25.251368 26.484903 27.514029 28.543156 30.603247 32.663338 33.692463 35.752556 36.575493 38.427574 40.487644"
         y="-3.9719672"
         id="tspan110"
         style="stroke-width:0.264583">identity. If the field operatives guess correctly, they may continue guessing, until they run out of ideas for the given</tspan></text>
    <text
       style="font-variant:normal;font-weight:normal;font-size:3.70417px;font-family:'Liberation Sans';-inkscape-font-specification:LiberationSans;writing-mode:lr-tb;fill:#333333;fill-opacity:1;fill-rule:nonzero;stroke:none;stroke-width:0.264583"
       id="text116"
       x="-143.65535"
       y="1.3196993"><tspan
         x="-143.65535 -141.80327 -140.98032 -138.92024 -136.86017 -135.83102 -133.77095 -132.53743 -131.50829 -129.44821 -127.38813 -126.35899 -125.53605 -124.7131 -123.68397 -122.65483 -120.59475 -118.53467 -116.68258 -115.65345 -113.59337 -112.77042 -111.74129 -110.71214 -108.65207 -107.62293 -104.9479 -103.71439 -101.6543 -99.594223 -97.534142 -96.505005 -94.444923 -92.384842 -91.151329 -89.299248 -87.239166 -85.179085 -84.149948 -83.187729 -80.925079 -78.864998 -76.804916 -74.744835 -73.715698 -72.892754 -71.863617 -70.83448 -70.011536 -68.159447 -67.130318 -66.101181 -64.0411 -61.981018 -60.951881 -58.8918 -57.862663 -55.802586 -53.742504 -52.508987 -51.479851 -50.450714 -48.390633 -46.330551 -43.244953 -42.537762 -40.685677 -39.656544 -38.627407 -36.567326 -35.333809 -33.273727 -32.244591 -31.215456 -29.155375 -28.12624 -26.066158 -25.243212 -23.391129 -21.331047 -20.30191 -18.241831 -17.212694 -15.360611 -14.537664 -12.477583 -10.417502 -9.3883667 -7.3282857 -5.2682047 -3.2081239 -2.1789877 -0.11890703 1.9411738 4.0012546 5.8533378 7.705421 8.7345572 9.6967726 11.959425 14.019506 16.079586 17.108723 18.137857 18.960806 20.194323 22.046394 23.075541 24.104687 25.133814 27.193905 29.253975 32.339573 33.368702 34.397846 36.457916 37.487064 39.339146 41.399216 43.459309 44.488434 46.548527 48.400608"
         y="1.3196993"
         id="tspan114"
         style="stroke-width:0.264583">clue or until they hit a wrong person. Then it is the other team's turn to give a clue and guess. The first team to contact</tspan></text>
    <text
       style="font-variant:normal;font-weight:normal;font-size:3.70417px;font-family:'Liberation Sans';-inkscape-font-specification:LiberationSans;writing-mode:lr-tb;fill:#333333;fill-opacity:1;fill-rule:nonzero;stroke:none;stroke-width:0.264583"
       id="text120"
       x="-143.65535"
       y="6.6113653"><tspan
         x="-143.65535 -141.59528 -140.77232 -139.94939 -138.92024 -137.89111 -135.83102 -133.77095 -132.948 -131.71448 -130.68535 -128.62526 -126.56519 -124.5051 -122.44502 -121.41589 -119.5638 -118.53467 -115.85963 -115.03669 -112.97661 -111.12453 -110.09539 -109.06625 -107.00617 -104.94609 -103.91695 -101.85687 -99.796791 -96.711197 -94.651115"
         y="6.6113653"
         id="tspan118"
         style="stroke-width:0.264583">all their agents wins the game.</tspan></text>
    <text
       style="font-variant:normal;font-weight:bold;font-size:3.70417px;font-family:'Liberation Sans';-inkscape-font-specification:LiberationSans-Bold;writing-mode:lr-tb;fill:#333333;fill-opacity:1;fill-rule:nonzero;stroke:none;stroke-width:0.264583"
       id="text124"
       x="-143.65535"
       y="15.607198"><tspan
         x="-143.65535 -141.3927 -139.13005 -137.06996 -136.04083 -134.80731 -132.74724 -130.68715 -127.39355 -126.36442 -125.13091 -122.86826 -120.80817 -119.57465 -118.54552 -116.48544 -114.22279 -111.96014 -110.72662 -108.66653 -106.60645 -105.37294 -103.31286 -101.05021 -100.02107 -98.787552 -96.524902 -94.464821 -93.435684 -91.375603 -89.315521 -87.25544 -85.195358 -83.135277 -81.075203 -80.046066 -77.783409 -76.754272 -75.725136 -73.462486 -71.402405 -69.342323 -67.282242"
         y="15.607198"
         id="tspan122"
         style="stroke-width:0.264583">The team that contacted the assassin loses.</tspan></text>
    <text
       style="font-variant:normal;font-weight:normal;font-size:3.70417px;font-family:'Liberation Sans';-inkscape-font-specification:LiberationSans;writing-mode:lr-tb;fill:#333333;fill-opacity:1;fill-rule:nonzero;stroke:none;stroke-width:0.264583"
       id="text128"
       x="-65.223183"
       y="15.607198"><tspan
         x="-65.223183 -64.194054 -63.164913 -62.135777 -61.106644 -59.046562 -56.986481 -55.957344 -54.928207 -54.105263 -52.045181 -51.222233 -49.162151 -48.133015 -46.072937 -44.012856 -41.952774 -40.719257 -38.659187 -37.630039 -36.807102 -34.955021 -32.894928 -31.865793 -30.836658 -28.776577 -26.716496 -24.864412 -22.804333 -20.744251 -18.892168 -17.863031 -16.833897 -14.773815 -12.713735 -11.684598 -9.6245174 -7.7724342 -5.920351 -3.86027 -2.0081868 -0.15610373 0.66684341 2.7269242 3.7560604 4.7851963 5.8143325 7.874413 9.934494 10.96363 13.63866 15.698741 16.932257 18.992338 20.021475 20.844421 22.696505 23.72563 25.577713 27.637804 29.489887 31.549959 32.783474 34.843567 36.903637 37.932781 39.992855 41.844936 42.874084 43.90321 45.963299"
         y="15.607198"
         id="tspan126"
         style="stroke-width:0.264583">If the field operative touches the assassin, the word is covered by the</tspan></text>
    <text
       style="font-variant:normal;font-weight:normal;font-size:3.70417px;font-family:'Liberation Sans';-inkscape-font-specification:LiberationSans;writing-mode:lr-tb;fill:#333333;fill-opacity:1;fill-rule:nonzero;stroke:none;stroke-width:0.264583"
       id="text132"
       x="-143.65535"
       y="20.898865"><tspan
         x="-143.65535 -141.59528 -139.74319 -137.89111 -135.83102 -133.97894 -132.12686 -131.30391 -129.24384 -128.21469 -126.36261 -124.30253 -123.06902 -121.00893 -119.9798 -119.01759 -116.75493 -114.69485 -113.8719 -112.01982 -110.99068 -108.9306 -106.87052 -104.81044 -102.95836 -101.92922 -100.90009 -98.840004 -96.779922 -95.750786 -94.517273 -92.457191 -90.39711 -88.337029 -86.276947"
         y="20.898865"
         id="tspan130"
         style="stroke-width:0.264583">assassin card. This ends the round!</tspan></text>
    <path
       d="m -126.04512,-60.333826 -1.0151,-14.516632 c -0.009,-0.12998 -0.005,-0.259596 0.011,-0.388848 0.0164,-0.129253 0.0453,-0.25566 0.0867,-0.379222 0.0413,-0.123563 0.0943,-0.24191 0.159,-0.355033 0.0647,-0.113123 0.13972,-0.218855 0.2252,-0.317187 0.0855,-0.09833 0.17974,-0.187384 0.28276,-0.267157 0.10303,-0.07977 0.21284,-0.148725 0.32945,-0.206858 0.1166,-0.05814 0.23776,-0.104343 0.36347,-0.138616 0.12571,-0.03427 0.25355,-0.05596 0.38353,-0.06504 l 26.393879,-1.84564 c 0.129979,-0.0091 0.259591,-0.0054 0.388847,0.01103 0.129253,0.01644 0.255663,0.04533 0.379226,0.08668 0.123562,0.04134 0.241906,0.09434 0.355028,0.158995 0.113122,0.06465 0.21885,0.139726 0.317189,0.225205 0.09833,0.08548 0.187386,0.179731 0.267157,0.282753 0.07977,0.103031 0.14872,0.212844 0.206859,0.329447 0.05814,0.116611 0.104341,0.237769 0.138614,0.363474 0.03427,0.125704 0.05595,0.253551 0.06504,0.383531 l 1.015102,14.516632 c 0.0091,0.129981 0.0054,0.259597 -0.01103,0.388849 -0.01645,0.129252 -0.04534,0.255659 -0.08668,0.379222 -0.04135,0.123562 -0.09434,0.241909 -0.158997,0.355033 -0.06466,0.113114 -0.139726,0.218846 -0.225205,0.317186 -0.08549,0.09833 -0.179736,0.187385 -0.28276,0.267157 -0.103022,0.07977 -0.212838,0.148726 -0.329444,0.206858 -0.116606,0.05814 -0.237766,0.104343 -0.363472,0.138616 -0.125709,0.03427 -0.253548,0.05596 -0.383527,0.06504 l -26.393876,1.84564 c -0.12998,0.0091 -0.2596,0.0054 -0.38885,-0.01103 -0.12926,-0.01644 -0.25567,-0.04534 -0.37923,-0.08668 -0.12356,-0.04134 -0.2419,-0.09434 -0.35503,-0.158995 -0.11312,-0.06465 -0.21885,-0.139725 -0.31719,-0.225205 -0.0983,-0.08548 -0.18738,-0.179739 -0.26715,-0.282761 -0.0798,-0.103023 -0.14873,-0.212835 -0.20686,-0.329438 -0.0581,-0.116612 -0.10435,-0.23777 -0.13862,-0.363474 -0.0343,-0.125705 -0.0559,-0.253551 -0.065,-0.383532 z"
       style="fill:#ff0000;fill-opacity:1;fill-rule:nonzero;stroke:none;stroke-width:1"
       id="path452" />
    <path
       d="m -126.04512,-60.333826 -1.0151,-14.516632 c -0.009,-0.12998 -0.005,-0.259596 0.011,-0.388848 0.0164,-0.129253 0.0453,-0.25566 0.0867,-0.379222 0.0413,-0.123563 0.0943,-0.24191 0.159,-0.355033 0.0647,-0.113123 0.13972,-0.218855 0.2252,-0.317187 0.0855,-0.09833 0.17974,-0.187384 0.28276,-0.267157 0.10303,-0.07977 0.21284,-0.148725 0.32945,-0.206858 0.1166,-0.05814 0.23776,-0.104343 0.36347,-0.138616 0.12571,-0.03427 0.25355,-0.05596 0.38353,-0.06504 l 26.393879,-1.84564 c 0.129979,-0.0091 0.259591,-0.0054 0.388847,0.01103 0.129253,0.01644 0.255663,0.04533 0.379226,0.08668 0.123562,0.04134 0.241906,0.09434 0.355028,0.158995 0.113122,0.06465 0.21885,0.139726 0.317189,0.225205 0.09833,0.08548 0.187386,0.179731 0.267157,0.282753 0.07977,0.103031 0.14872,0.212844 0.206859,0.329447 0.05814,0.116611 0.104341,0.237769 0.138614,0.363474 0.03427,0.125704 0.05595,0.253551 0.06504,0.383531 l 1.015102,14.516632 c 0.0091,0.129981 0.0054,0.259597 -0.01103,0.388849 -0.01645,0.129252 -0.04534,0.255659 -0.08668,0.379222 -0.04135,0.123562 -0.09434,0.241909 -0.158997,0.355033 -0.06466,0.113114 -0.139726,0.218846 -0.225205,0.317186 -0.08549,0.09833 -0.179736,0.187385 -0.28276,0.267157 -0.103022,0.07977 -0.212838,0.148726 -0.329444,0.206858 -0.116606,0.05814 -0.237766,0.104343 -0.363472,0.138616 -0.125709,0.03427 -0.253548,0.05596 -0.383527,0.06504 l -26.393876,1.84564 c -0.12998,0.0091 -0.2596,0.0054 -0.38885,-0.01103 -0.12926,-0.01644 -0.25567,-0.04534 -0.37923,-0.08668 -0.12356,-0.04134 -0.2419,-0.09434 -0.35503,-0.158995 -0.11312,-0.06465 -0.21885,-0.139725 -0.31719,-0.225205 -0.0983,-0.08548 -0.18738,-0.179739 -0.26715,-0.282761 -0.0798,-0.103023 -0.14873,-0.212835 -0.20686,-0.329438 -0.0581,-0.116612 -0.10435,-0.23777 -0.13862,-0.363474 -0.0343,-0.125705 -0.0559,-0.253551 -0.065,-0.383532 z"
       style="fill:none;stroke:#cc0000;stroke-width:1;stroke-linecap:butt;stroke-linejoin:miter;stroke-miterlimit:10;stroke-dasharray:none;stroke-opacity:1"
       id="path454" />
    <path
       d="m -121.16876,-57.144187 -0.25397,-14.549864 c -0.002,-0.130276 0.008,-0.25952 0.0314,-0.387739 0.0232,-0.12822 0.0587,-0.252942 0.1064,-0.374168 0.0478,-0.121234 0.10688,-0.236635 0.17737,-0.346219 0.0705,-0.109584 0.15098,-0.211243 0.24149,-0.304969 0.0905,-0.09373 0.1893,-0.177724 0.29636,-0.251993 0.10705,-0.07427 0.22033,-0.13738 0.33982,-0.189332 0.11948,-0.05196 0.24289,-0.09176 0.37022,-0.119405 0.12733,-0.02764 0.25613,-0.0426 0.38641,-0.04488 l 26.454303,-0.461764 c 0.130276,-0.0023 0.259518,0.0082 0.387737,0.03137 0.128214,0.02319 0.252939,0.05866 0.374169,0.106409 0.12123,0.04775 0.236637,0.106875 0.34622,0.17736 0.109583,0.07049 0.211238,0.150986 0.304968,0.241495 0.09372,0.09052 0.177723,0.189298 0.251992,0.296359 0.07427,0.107052 0.137378,0.220328 0.189334,0.339818 0.05195,0.11949 0.09176,0.2429 0.119402,0.37023 0.02765,0.127322 0.04261,0.256125 0.04488,0.386402 l 0.253969,14.549872 c 0.0023,0.130268 -0.0082,0.25952 -0.03137,0.387731 -0.02319,0.128219 -0.05866,0.252942 -0.106408,0.374168 -0.04775,0.121234 -0.106874,0.236643 -0.177359,0.346218 -0.07049,0.109584 -0.150989,0.211244 -0.241497,0.304978 -0.09051,0.09373 -0.189297,0.177724 -0.296354,0.251994 -0.107057,0.07427 -0.220331,0.137371 -0.33982,0.189331 -0.119488,0.05195 -0.242899,0.09175 -0.370228,0.119397 -0.12733,0.02765 -0.256129,0.04261 -0.386406,0.04488 l -26.454302,0.461763 c -0.13027,0.0023 -0.25952,-0.0082 -0.38774,-0.03137 -0.12821,-0.02318 -0.25294,-0.05866 -0.37416,-0.106409 -0.12123,-0.04775 -0.23664,-0.106866 -0.34622,-0.177359 -0.10959,-0.07048 -0.21124,-0.150986 -0.30497,-0.241495 -0.0937,-0.09052 -0.17773,-0.189298 -0.25199,-0.296359 -0.0743,-0.107052 -0.13738,-0.220328 -0.18934,-0.339818 -0.052,-0.11949 -0.0918,-0.242892 -0.1194,-0.370222 -0.0276,-0.12733 -0.0426,-0.256133 -0.0449,-0.38641 z"
       style="fill:#07639b;fill-opacity:1;fill-rule:nonzero;stroke:none;stroke-width:1"
       id="path458" />
    <path
       d="m -121.16876,-57.144187 -0.25397,-14.549864 c -0.002,-0.130276 0.008,-0.25952 0.0314,-0.387739 0.0232,-0.12822 0.0587,-0.252942 0.1064,-0.374168 0.0478,-0.121234 0.10688,-0.236635 0.17737,-0.346219 0.0705,-0.109584 0.15098,-0.211243 0.24149,-0.304969 0.0905,-0.09373 0.1893,-0.177724 0.29636,-0.251993 0.10705,-0.07427 0.22033,-0.13738 0.33982,-0.189332 0.11948,-0.05196 0.24289,-0.09176 0.37022,-0.119405 0.12733,-0.02764 0.25613,-0.0426 0.38641,-0.04488 l 26.454303,-0.461764 c 0.130276,-0.0023 0.259518,0.0082 0.387737,0.03137 0.128214,0.02319 0.252939,0.05866 0.374169,0.106409 0.12123,0.04775 0.236637,0.106875 0.34622,0.17736 0.109583,0.07049 0.211238,0.150986 0.304968,0.241495 0.09372,0.09052 0.177723,0.189298 0.251992,0.296359 0.07427,0.107052 0.137378,0.220328 0.189334,0.339818 0.05195,0.11949 0.09176,0.2429 0.119402,0.37023 0.02765,0.127322 0.04261,0.256125 0.04488,0.386402 l 0.253969,14.549872 c 0.0023,0.130268 -0.0082,0.25952 -0.03137,0.387731 -0.02319,0.128219 -0.05866,0.252942 -0.106408,0.374168 -0.04775,0.121234 -0.106874,0.236643 -0.177359,0.346218 -0.07049,0.109584 -0.150989,0.211244 -0.241497,0.304978 -0.09051,0.09373 -0.189297,0.177724 -0.296354,0.251994 -0.107057,0.07427 -0.220331,0.137371 -0.33982,0.189331 -0.119488,0.05195 -0.242899,0.09175 -0.370228,0.119397 -0.12733,0.02765 -0.256129,0.04261 -0.386406,0.04488 l -26.454302,0.461763 c -0.13027,0.0023 -0.25952,-0.0082 -0.38774,-0.03137 -0.12821,-0.02318 -0.25294,-0.05866 -0.37416,-0.106409 -0.12123,-0.04775 -0.23664,-0.106866 -0.34622,-0.177359 -0.10959,-0.07048 -0.21124,-0.150986 -0.30497,-0.241495 -0.0937,-0.09052 -0.17773,-0.189298 -0.25199,-0.296359 -0.0743,-0.107052 -0.13738,-0.220328 -0.18934,-0.339818 -0.052,-0.11949 -0.0918,-0.242892 -0.1194,-0.370222 -0.0276,-0.12733 -0.0426,-0.256133 -0.0449,-0.38641 z"
       style="fill:none;stroke:#06517c;stroke-width:1;stroke-linecap:butt;stroke-linejoin:miter;stroke-miterlimit:10;stroke-dasharray:none;stroke-opacity:1"
       id="path460" />
    <path
       d="m -62.032791,-57.411243 -0.507856,-14.543217 c -0.0046,-0.130217 0.0036,-0.259622 0.02459,-0.388222 0.02095,-0.128609 0.05424,-0.253932 0.09987,-0.375971 0.04564,-0.122047 0.102726,-0.238472 0.171289,-0.349267 0.06856,-0.110795 0.147278,-0.213842 0.236144,-0.309135 0.08886,-0.09529 0.186165,-0.181 0.291905,-0.257124 0.105749,-0.07612 0.217898,-0.141207 0.336465,-0.195241 0.118567,-0.05403 0.241258,-0.09598 0.368089,-0.12584 0.126822,-0.02986 0.255346,-0.04708 0.385563,-0.05162 l 26.442219,-0.923383 c 0.130218,-0.0046 0.259622,0.0036 0.388222,0.0246 0.1286,0.02095 0.253924,0.05424 0.375971,0.09986 0.122047,0.04564 0.238464,0.102726 0.349258,0.171289 0.110804,0.06856 0.213843,0.147278 0.309144,0.236144 0.09528,0.08886 0.180992,0.186165 0.257124,0.291905 0.07612,0.105749 0.141199,0.217899 0.195233,0.336466 0.05403,0.118567 0.09598,0.241257 0.125848,0.368088 0.02986,0.126822 0.04707,0.255346 0.05161,0.385564 l 0.507865,14.543217 c 0.0046,0.130218 -0.0036,0.259622 -0.0246,0.388231 -0.02096,0.1286 -0.05424,0.253923 -0.09986,0.375962 -0.04563,0.122047 -0.102726,0.238464 -0.171289,0.349267 -0.06856,0.110795 -0.147278,0.213842 -0.236136,0.309135 -0.08887,0.09529 -0.186165,0.181 -0.291913,0.257124 -0.105741,0.07613 -0.217899,0.141207 -0.336466,0.195241 -0.118558,0.05403 -0.241257,0.09598 -0.368088,0.12584 -0.126822,0.02987 -0.255346,0.04707 -0.385564,0.05162 l -26.44221,0.923383 c -0.130218,0.0046 -0.259631,-0.0036 -0.388231,-0.0246 -0.1286,-0.02095 -0.253924,-0.05424 -0.375971,-0.09986 -0.122038,-0.04563 -0.238463,-0.102726 -0.349258,-0.171289 -0.110795,-0.06856 -0.213843,-0.147278 -0.309135,-0.236136 -0.09529,-0.08887 -0.181,-0.186173 -0.257124,-0.291913 -0.07613,-0.105749 -0.141207,-0.217899 -0.195241,-0.336466 -0.05403,-0.118567 -0.09598,-0.241257 -0.125849,-0.368088 -0.02986,-0.126822 -0.04707,-0.255346 -0.05161,-0.385564 z"
       style="fill:#c6b9a5;fill-opacity:1;fill-rule:nonzero;stroke:none;stroke-width:1"
       id="path464" />
    <path
       d="m -62.032791,-57.411243 -0.507856,-14.543217 c -0.0046,-0.130217 0.0036,-0.259622 0.02459,-0.388222 0.02095,-0.128609 0.05424,-0.253932 0.09987,-0.375971 0.04564,-0.122047 0.102726,-0.238472 0.171289,-0.349267 0.06856,-0.110795 0.147278,-0.213842 0.236144,-0.309135 0.08886,-0.09529 0.186165,-0.181 0.291905,-0.257124 0.105749,-0.07612 0.217898,-0.141207 0.336465,-0.195241 0.118567,-0.05403 0.241258,-0.09598 0.368089,-0.12584 0.126822,-0.02986 0.255346,-0.04708 0.385563,-0.05162 l 26.442219,-0.923383 c 0.130218,-0.0046 0.259622,0.0036 0.388222,0.0246 0.1286,0.02095 0.253924,0.05424 0.375971,0.09986 0.122047,0.04564 0.238464,0.102726 0.349258,0.171289 0.110804,0.06856 0.213843,0.147278 0.309144,0.236144 0.09528,0.08886 0.180992,0.186165 0.257124,0.291905 0.07612,0.105749 0.141199,0.217899 0.195233,0.336466 0.05403,0.118567 0.09598,0.241257 0.125848,0.368088 0.02986,0.126822 0.04707,0.255346 0.05161,0.385564 l 0.507865,14.543217 c 0.0046,0.130218 -0.0036,0.259622 -0.0246,0.388231 -0.02096,0.1286 -0.05424,0.253923 -0.09986,0.375962 -0.04563,0.122047 -0.102726,0.238464 -0.171289,0.349267 -0.06856,0.110795 -0.147278,0.213842 -0.236136,0.309135 -0.08887,0.09529 -0.186165,0.181 -0.291913,0.257124 -0.105741,0.07613 -0.217899,0.141207 -0.336466,0.195241 -0.118558,0.05403 -0.241257,0.09598 -0.368088,0.12584 -0.126822,0.02987 -0.255346,0.04707 -0.385564,0.05162 l -26.44221,0.923383 c -0.130218,0.0046 -0.259631,-0.0036 -0.388231,-0.0246 -0.1286,-0.02095 -0.253924,-0.05424 -0.375971,-0.09986 -0.122038,-0.04563 -0.238463,-0.102726 -0.349258,-0.171289 -0.110795,-0.06856 -0.213843,-0.147278 -0.309135,-0.236136 -0.09529,-0.08887 -0.181,-0.186173 -0.257124,-0.291913 -0.07613,-0.105749 -0.141207,-0.217899 -0.195241,-0.336466 -0.05403,-0.118567 -0.09598,-0.241257 -0.125849,-0.368088 -0.02986,-0.126822 -0.04707,-0.255346 -0.05161,-0.385564 z"
       style="fill:none;stroke:#8d8476;stroke-width:1;stroke-linecap:butt;stroke-linejoin:miter;stroke-miterlimit:10;stroke-dasharray:none;stroke-opacity:1"
       id="path466" />
    <path
       d="M 2.2609627,-57.411243 1.7531067,-71.95446 c -0.00457,-0.130217 0.00364,-0.259622 0.024587,-0.388222 0.020946,-0.128609 0.054237,-0.253932 0.099864,-0.375971 0.045635,-0.122047 0.1027261,-0.238472 0.1712891,-0.349267 0.068563,-0.110795 0.1472777,-0.213842 0.2361438,-0.309135 0.088858,-0.09529 0.1861651,-0.181 0.2919053,-0.257124 0.1057486,-0.07612 0.2178981,-0.141207 0.3364653,-0.195241 0.1185672,-0.05403 0.2412576,-0.09598 0.3680883,-0.12584 0.1268222,-0.02986 0.2553461,-0.04708 0.3855635,-0.05162 l 26.442219,-0.923383 c 0.130217,-0.0046 0.259622,0.0036 0.388222,0.0246 0.1286,0.02095 0.253923,0.05424 0.37597,0.09986 0.122047,0.04564 0.238464,0.102726 0.349259,0.171289 0.110803,0.06856 0.213842,0.147278 0.309143,0.236144 0.09528,0.08886 0.180992,0.186165 0.257124,0.291905 0.07612,0.105749 0.141199,0.217899 0.195233,0.336466 0.05403,0.118567 0.09598,0.241257 0.12585,0.368088 0.02986,0.126822 0.04707,0.255346 0.05161,0.385564 l 0.507864,14.543217 c 0.0046,0.130218 -0.0036,0.259622 -0.0246,0.388231 -0.02096,0.1286 -0.05424,0.253923 -0.09986,0.375962 -0.04563,0.122047 -0.102726,0.238464 -0.171289,0.349267 -0.06856,0.110795 -0.147278,0.213842 -0.236135,0.309135 -0.08887,0.09529 -0.186165,0.181 -0.291914,0.257124 -0.10574,0.07613 -0.217898,0.141207 -0.336465,0.195241 -0.118559,0.05403 -0.241257,0.09598 -0.368089,0.12584 -0.126822,0.02987 -0.255346,0.04707 -0.385563,0.05162 l -26.4422103,0.923383 c -0.1302174,0.0046 -0.2596304,-0.0036 -0.3882305,-0.0246 -0.1286002,-0.02095 -0.2539238,-0.05424 -0.3759708,-0.09986 -0.1220385,-0.04563 -0.2384637,-0.102726 -0.3492585,-0.171289 -0.1107948,-0.06856 -0.2138425,-0.147278 -0.3091349,-0.236136 -0.095292,-0.08887 -0.1810004,-0.186173 -0.2571241,-0.291913 -0.076132,-0.105749 -0.1412071,-0.217899 -0.1952414,-0.336466 -0.054034,-0.118567 -0.095978,-0.241257 -0.1258485,-0.368088 -0.029862,-0.126822 -0.047066,-0.255346 -0.051613,-0.385564 z"
       style="fill:#444444;fill-opacity:1;fill-rule:nonzero;stroke:none;stroke-width:1"
       id="path470" />
    <path
       d="M 2.2609627,-57.411243 1.7531067,-71.95446 c -0.00457,-0.130217 0.00364,-0.259622 0.024587,-0.388222 0.020946,-0.128609 0.054237,-0.253932 0.099864,-0.375971 0.045635,-0.122047 0.1027261,-0.238472 0.1712891,-0.349267 0.068563,-0.110795 0.1472777,-0.213842 0.2361438,-0.309135 0.088858,-0.09529 0.1861651,-0.181 0.2919053,-0.257124 0.1057486,-0.07612 0.2178981,-0.141207 0.3364653,-0.195241 0.1185672,-0.05403 0.2412576,-0.09598 0.3680883,-0.12584 0.1268222,-0.02986 0.2553461,-0.04708 0.3855635,-0.05162 l 26.442219,-0.923383 c 0.130217,-0.0046 0.259622,0.0036 0.388222,0.0246 0.1286,0.02095 0.253923,0.05424 0.37597,0.09986 0.122047,0.04564 0.238464,0.102726 0.349259,0.171289 0.110803,0.06856 0.213842,0.147278 0.309143,0.236144 0.09528,0.08886 0.180992,0.186165 0.257124,0.291905 0.07612,0.105749 0.141199,0.217899 0.195233,0.336466 0.05403,0.118567 0.09598,0.241257 0.12585,0.368088 0.02986,0.126822 0.04707,0.255346 0.05161,0.385564 l 0.507864,14.543217 c 0.0046,0.130218 -0.0036,0.259622 -0.0246,0.388231 -0.02096,0.1286 -0.05424,0.253923 -0.09986,0.375962 -0.04563,0.122047 -0.102726,0.238464 -0.171289,0.349267 -0.06856,0.110795 -0.147278,0.213842 -0.236135,0.309135 -0.08887,0.09529 -0.186165,0.181 -0.291914,0.257124 -0.10574,0.07613 -0.217898,0.141207 -0.336465,0.195241 -0.118559,0.05403 -0.241257,0.09598 -0.368089,0.12584 -0.126822,0.02987 -0.255346,0.04707 -0.385563,0.05162 l -26.4422103,0.923383 c -0.1302174,0.0046 -0.2596304,-0.0036 -0.3882305,-0.0246 -0.1286002,-0.02095 -0.2539238,-0.05424 -0.3759708,-0.09986 -0.1220385,-0.04563 -0.2384637,-0.102726 -0.3492585,-0.171289 -0.1107948,-0.06856 -0.2138425,-0.147278 -0.3091349,-0.236136 -0.095292,-0.08887 -0.1810004,-0.186173 -0.2571241,-0.291913 -0.076132,-0.105749 -0.1412071,-0.217899 -0.1952414,-0.336466 -0.054034,-0.118567 -0.095978,-0.241257 -0.1258485,-0.368088 -0.029862,-0.126822 -0.047066,-0.255346 -0.051613,-0.385564 z"
       style="fill:none;stroke:#000000;stroke-width:1;stroke-linecap:butt;stroke-linejoin:miter;stroke-miterlimit:10;stroke-dasharray:none;stroke-opacity:1"
       id="path472" />
  </g>
</svg>
