<?xml version="1.0" encoding="UTF-8" standalone="no"?>
<!-- Created with Inkscape (http://www.inkscape.org/) -->

<svg
   version="1.1"
   id="svg2"
   xml:space="preserve"
   width="803.6427"
   height="777.9552"
   viewBox="0 0 803.6427 777.95518"
   xmlns="http://www.w3.org/2000/svg"
   xmlns:svg="http://www.w3.org/2000/svg"><defs
     id="defs6"><clipPath
       clipPathUnits="userSpaceOnUse"
       id="clipPath16"><path
         d="M 0,0 H 6000 V 4662.5 H 0 Z"
         clip-rule="evenodd"
         id="path14" /></clipPath></defs><g
     id="g8"
     transform="scale(0.31999998)"><path
       d="M 0,0 H 2511.3836 V 2431.1102 H 0 Z"
       style="fill:#fff5ee;fill-opacity:1;fill-rule:nonzero;stroke:none;stroke-width:1.4599"
       id="path20" /><path
       d="M 50,175 V 81.25 c -3e-6,-2.051906 0.200156,-4.084097 0.60045,-6.096572 0.400312,-2.012478 0.993081,-3.966575 1.778306,-5.86229 0.785231,-1.895713 1.747835,-3.696619 2.887816,-5.402713 1.139981,-1.706094 2.435428,-3.284597 3.88634,-4.735512 1.450916,-1.450913 3.029419,-2.74636 4.735513,-3.886335 1.706094,-1.139981 3.507,-2.102584 5.402712,-2.887815 1.895716,-0.785225 3.849813,-1.377994 5.862291,-1.778307 C 77.165903,50.200153 79.198094,50 81.25,50 h 2337.5 c 2.0518,0 4.0838,0.200156 6.0963,0.600456 2.0124,0.400313 3.9665,0.993082 5.8622,1.778306 1.8955,0.785232 3.6964,1.747835 5.4026,2.887816 1.7061,1.139975 3.2848,2.435422 4.7357,3.886334 1.451,1.450916 2.7464,3.029419 3.8865,4.735513 1.14,1.706094 2.1024,3.507 2.8877,5.402713 0.7852,1.895715 1.378,3.849812 1.7784,5.86229 0.4003,2.012475 0.6004,4.044666 0.6006,6.096572 V 175 c -2e-4,2.0519 -0.2003,4.08409 -0.6006,6.09657 -0.4004,2.01247 -0.9932,3.96656 -1.7784,5.86228 -0.7853,1.89571 -1.7477,3.69662 -2.8877,5.40272 -1.1401,1.7061 -2.4355,3.28461 -3.8865,4.73552 -1.4509,1.4509 -3.0296,2.74635 -4.7357,3.88632 -1.7062,1.13999 -3.5071,2.10258 -5.4026,2.88781 -1.8957,0.78524 -3.8498,1.378 -5.8622,1.77832 -2.0125,0.40031 -4.0445,0.60046 -6.0963,0.60046 H 81.25 c -2.051906,0 -4.084097,-0.20015 -6.096572,-0.60046 -2.012478,-0.40032 -3.966575,-0.99308 -5.86229,-1.77832 -1.895713,-0.78523 -3.696619,-1.74782 -5.402713,-2.88781 -1.706094,-1.13997 -3.284597,-2.43542 -4.735513,-3.88632 -1.450912,-1.45091 -2.746359,-3.02942 -3.88634,-4.73553 -1.139981,-1.70609 -2.102585,-3.507 -2.887816,-5.40271 -0.785225,-1.89572 -1.377994,-3.84981 -1.7783,-5.86228 C 50.200147,179.08409 49.999997,177.0519 50,175 Z"
       style="fill:#191d30;fill-opacity:1;fill-rule:nonzero;stroke:none;stroke-width:3.125"
       id="path22" /><path
       d="m 50,2171.875 v -225 c -3e-6,-2.0521 0.200156,-4.0846 0.60045,-6.097 0.400312,-2.0125 0.993081,-3.9666 1.778306,-5.8623 0.785231,-1.8957 1.747835,-3.6964 2.887816,-5.4025 1.139981,-1.7062 2.435428,-3.2845 3.88634,-4.7354 1.450916,-1.4509 3.029419,-2.7464 4.735513,-3.8862 1.706094,-1.1403 3.507,-2.1029 5.402712,-2.8879 1.895716,-0.7853 3.849813,-1.3779 5.862291,-1.7783 2.012475,-0.4003 4.044666,-0.6004 6.096572,-0.6004 h 2337.5 c 2.0518,0 4.0838,0.2 6.0963,0.6004 2.0124,0.4004 3.9665,0.993 5.8622,1.7783 1.8955,0.785 3.6964,1.7476 5.4026,2.8879 1.7061,1.1398 3.2848,2.4353 4.7357,3.8862 1.451,1.4509 2.7464,3.0292 3.8865,4.7354 1.14,1.7061 2.1024,3.5068 2.8877,5.4025 0.7852,1.8957 1.378,3.8498 1.7784,5.8623 0.4003,2.0124 0.6004,4.0449 0.6006,6.097 v 225 c -2e-4,2.0519 -0.2003,4.084 -0.6006,6.0965 -0.4004,2.0124 -0.9932,3.9665 -1.7784,5.8622 -0.7853,1.8957 -1.7477,3.6964 -2.8877,5.4026 -1.1401,1.7061 -2.4355,3.2846 -3.8865,4.7355 -1.4509,1.451 -3.0296,2.7462 -4.7357,3.8863 -1.7062,1.14 -3.5071,2.1024 -5.4026,2.8877 -1.8957,0.7852 -3.8498,1.378 -5.8622,1.7784 -2.0125,0.4005 -4.0445,0.6008 -6.0963,0.6008 H 81.25 c -2.051906,0 -4.084097,-0.2003 -6.096572,-0.6006 -2.012478,-0.4006 -3.966575,-0.9934 -5.86229,-1.7786 -1.895713,-0.7853 -3.696619,-1.7477 -5.402713,-2.8877 -1.706094,-1.1401 -3.284597,-2.4354 -4.735512,-3.8863 -1.450913,-1.4509 -2.74636,-3.0292 -3.886341,-4.7354 -1.139981,-1.7061 -2.102584,-3.507 -2.887816,-5.4027 -0.785225,-1.8957 -1.377993,-3.8498 -1.7783,-5.8622 C 50.200147,2175.959 49.999997,2173.9269 50,2171.875 Z"
       style="fill:#fde0c1;fill-opacity:1;fill-rule:nonzero;stroke:none;stroke-width:3.125"
       id="path24" /><text
       style="font-variant:normal;font-weight:bold;font-size:109.375px;font-family:'Liberation Sans';-inkscape-font-specification:LiberationSans-Bold;writing-mode:lr-tb;fill:#fccb8e;fill-opacity:1;fill-rule:nonzero;stroke:none;stroke-width:3.125"
       id="text34"
       x="100"
       y="165.625"><tspan
         x="100 185.07538 245.90454 343.15643 403.9856 434.37347 519.44885 580.27802 641.10718 683.67157 744.50073 774.88861 835.71777"
         y="165.625"
         id="tspan32"
         style="stroke-width:3.125">Game Overview</tspan></text><text
       style="font-variant:normal;font-weight:bold;font-size:43.75px;font-family:'Liberation Sans';-inkscape-font-specification:LiberationSans-Bold;writing-mode:lr-tb;fill:#333333;fill-opacity:1;fill-rule:nonzero;stroke:none;stroke-width:3.125"
       id="text38"
       x="50"
       y="309.375"><tspan
         x="50 76.724243 103.44849 127.78015 139.9353 169.11621 183.6853 210.40955 227.4353 251.76697 266.33606 290.66772 302.82288 314.97803 339.30969"
         y="309.375"
         id="tspan36"
         style="stroke-width:3.125">The Storyteller</tspan></text><text
       style="font-variant:normal;font-weight:normal;font-size:43.75px;font-family:'Liberation Sans';-inkscape-font-specification:LiberationSans;writing-mode:lr-tb;fill:#333333;fill-opacity:1;fill-rule:nonzero;stroke:none;stroke-width:3.125"
       id="text42"
       x="50"
       y="428.125"><tspan
         x="50 79.180908 103.51257 125.38757 149.71924 161.87439 174.02954 198.36121 212.9303 237.26196 249.41711 261.57227 285.90393 310.2356 334.56726 346.72241 371.05405 380.77393 405.10559 426.98059 451.31226 465.88135 478.0365 509.63135 519.3512 529.07104 538.79089 550.94604 575.27771 599.60938 611.76453 623.91968 648.25134 672.58301 684.73816 706.61316 718.76831 743.09998 757.66907 779.54407 791.69922 816.03088 825.75073 835.47058 859.80225 871.9574 884.11255 895.47729 922.20154 946.5332 970.86487 992.73987 1004.895 1029.2267 1051.1017 1075.4333 1111.8774 1121.5973 1145.929 1170.2606 1182.4158 1194.5709 1218.9026 1243.2343 1255.3894 1279.7211 1291.8762 1301.5961 1338.0402 1362.3718 1386.7035 1411.0352 1423.1903 1445.0653 1469.397 1483.9661 1508.2977 1530.1727 1542.3279 1552.0477 1576.3794 1588.5345 1600.6897 1625.0214 1649.353 1659.0729 1673.642 1685.7971 1710.1288 1734.4604 1758.7921 1783.1238 1795.2789 1807.4341 1839.0289 1860.9039 1870.6238 1894.9554 1919.2871 1931.4423 1955.7739 1980.1056 2004.4373 2016.5924 2040.9241 2053.0791 2065.2344 2077.3896 2101.7212 2126.0527 2162.4971 2174.6521 2186.8071 2198.9624 2223.2939 2247.6257 2269.5007 2281.6558 2293.811 2318.1426 2327.8625 2352.1943 2374.0693 2386.2244 2410.5562"
         y="428.125"
         id="tspan40"
         style="stroke-width:3.125">Each turn, one player will be the storyteller. They examine the 6 image cards in their hand. Using one of them, they think of</tspan></text><text
       style="font-variant:normal;font-weight:normal;font-size:43.75px;font-family:'Liberation Sans';-inkscape-font-specification:LiberationSans;writing-mode:lr-tb;fill:#333333;fill-opacity:1;fill-rule:nonzero;stroke:none;stroke-width:3.125"
       id="text46"
       x="50"
       y="490.625"><tspan
         x="50 71.875 96.206665 132.65076 156.98242 169.13757 193.46924 203.18909 227.52075 251.85242 264.00757 276.16272 300.49438 312.64954 334.52454 358.8562 380.73117 392.88635 417.21805 441.54968 465.88135 478.0365 499.9115 524.24316 546.11816 558.27332 567.99316 580.14832 592.30347 616.63513 640.9668 653.12195 665.2771 674.99695 699.32861 723.66028 747.99194 760.14709 774.71619 806.31104 816.03088 828.18604 852.5177 876.84937 901.18103 913.33618 925.49133 940.06042 964.39209 986.26709 1010.5988 1034.9304 1044.6503 1054.3701 1078.7018 1103.0334 1115.1886 1127.3438 1151.6754 1176.0071 1185.7269 1200.296 1212.4512 1234.3262 1258.6578 1273.2269 1297.5586 1309.7137 1321.8689 1346.2006 1358.3557 1370.5109 1394.8425 1419.1742 1431.3293 1455.661 1467.8162 1492.1478 1516.4795 1531.0486 1543.2037 1567.5354 1577.2552 1601.5869 1623.4619 1647.7936 1662.3627 1684.2377 1698.8068"
         y="490.625"
         id="tspan44"
         style="stroke-width:3.125">something to say and say it out loud (without revealing their card to the other players).</tspan></text><text
       style="font-variant:normal;font-weight:normal;font-size:43.75px;font-family:'Liberation Sans';-inkscape-font-specification:LiberationSans;writing-mode:lr-tb;fill:#333333;fill-opacity:1;fill-rule:nonzero;stroke:none;stroke-width:3.125"
       id="text50"
       x="50"
       y="596.875"><tspan
         x="50 91.293335 115.625 139.95667 152.11182 164.26697 176.42212 200.75378 225.08545 246.96045 259.1156 280.9906 305.32227 327.19727 339.35242 361.22742 385.55908 409.89075 422.0459 434.20108 458.53271 480.40771 504.73938 516.89453 538.76953 563.1012 577.67029 587.39014 611.7218 636.05347 657.92847 670.08362 682.23877 706.57043 721.13953 757.58362 779.45862 791.61377 803.76892 813.48877 825.64392 837.79907 859.67407 884.00574 908.3374 920.49255 944.82422 969.15588 981.31104 1017.7551 1042.0868 1066.4185 1090.7501 1102.9053 1127.2369 1151.5686 1163.7238 1188.0554 1200.2106 1212.3657 1236.6974 1261.0291 1285.3607 1297.5159 1321.8475 1336.4166 1348.5718 1370.4468 1394.7784 1416.6534 1440.9851 1455.5542 1479.8859 1489.6057 1501.7609 1533.3557 1557.6874 1572.2565 1596.5881 1618.4631 1630.6183 1642.7734 1667.1051 1681.6742 1693.8293 1718.161 1740.036 1764.3677 1788.6993 1800.8545 1825.1862 1849.5178 1861.673 1886.0046 1910.3363 1922.4915 1946.8231 1956.543 1980.8746 2005.2063 2017.3615 2053.8057 2078.1372 2092.7063 2117.0381 2129.1931 2141.3481 2165.6799 2190.0117 2214.3433 2226.4985 2250.8301"
         y="596.875"
         id="tspan48"
         style="stroke-width:3.125">What they say can take various forms: it can be made up of one or several words, or even be nothing more than an</tspan></text><text
       style="font-variant:normal;font-weight:normal;font-size:43.75px;font-family:'Liberation Sans';-inkscape-font-specification:LiberationSans;writing-mode:lr-tb;fill:#333333;fill-opacity:1;fill-rule:nonzero;stroke:none;stroke-width:3.125"
       id="text54"
       x="50"
       y="659.375"><tspan
         x="50 74.331665 98.66333 122.995 159.43909 183.77075 195.9259 220.25757 244.58923 268.9209 293.25256 302.97241 327.30408 339.45923 351.61438 363.76953 375.92468 388.07983 409.95483 434.2865 458.61816 470.77332 495.10498 519.43665 531.5918 541.31165 565.64331 587.51831 611.84998 636.18164 648.33679 672.66846 697.00012 709.15527 721.31042 735.87952 760.21118 796.65527 808.81042 830.68542 852.56042 867.12952 891.46118 903.61633 925.49133 949.823 961.97815 986.30981 1000.8789 1013.0341 1025.1892 1049.5209 1071.3959 1095.7275 1107.8827 1120.0378 1144.3695 1168.7012 1180.8563 1193.0115 1217.3431 1231.9122 1268.3563 1280.5115 1304.8431 1316.9983 1329.1534 1360.7483 1385.08 1399.649 1421.524 1443.399 1455.5542 1479.8859 1489.6057 1504.1748 1528.5065 1552.8381 1577.1698 1599.0448 1611.2 1635.5316 1657.4066 1667.1265 1689.0015 1701.1566 1710.8765 1735.2081 1759.5398 1771.6949 1786.264 1810.5957 1822.7509 1832.4707 1842.1906 1866.5222 1890.8539 1903.009 1927.3407 1941.9098 1954.0649 1966.2201 1997.8149 2022.1466 2034.3018 2046.4569 2061.0259 2085.3577 2121.8018 2133.957 2158.2886 2170.4438 2194.7754 2219.1069 2243.4387 2279.8828 2292.0381 2316.3696"
         y="659.375"
         id="tspan52"
         style="stroke-width:3.125">onomatopoeia. It can be invented from scratch or take the form of works already existing (a line or two from a poem or</tspan></text><text
       style="font-variant:normal;font-weight:normal;font-size:43.75px;font-family:'Liberation Sans';-inkscape-font-specification:LiberationSans;writing-mode:lr-tb;fill:#333333;fill-opacity:1;fill-rule:nonzero;stroke:none;stroke-width:3.125"
       id="text58"
       x="50"
       y="721.875"><tspan
         x="50 71.875 96.206665 120.53833 144.87 157.02515 169.1803 181.33545 205.66711 229.99878 242.15393 254.30908 264.02893 276.18408 285.90393 310.2356 322.39075 346.72241 358.87756 371.03271 395.36438 407.51953 443.96362 468.29529 490.17029 499.89014 524.2218 536.37695 560.70862 575.27771 587.43286 609.30786 633.63953 670.08362 694.41528 706.57043 730.9021 743.05725 767.38892 791.72058 806.28967 818.44482 850.03967 874.37134 888.94043 910.81543 922.97058 935.12573 959.4574 971.61255 995.94421 1010.5133 1034.845 1056.72 1081.0516 1095.6207 1119.9524 1132.1075 1144.2627 1168.5944 1180.7495 1202.6245 1214.7797 1229.3488"
         y="721.875"
         id="tspan56"
         style="stroke-width:3.125">song, the title of a movie or some other work, a proverb, etc.).</tspan></text><text
       style="font-variant:normal;font-weight:normal;font-size:43.75px;font-family:'Liberation Sans';-inkscape-font-specification:LiberationSans;writing-mode:lr-tb;fill:#333333;fill-opacity:1;fill-rule:nonzero;stroke:none;stroke-width:3.125"
       id="text62"
       x="50"
       y="828.125"><tspan
         x="50 79.180908 88.900757 110.77576 132.65076 142.37061 166.70227 191.03394 203.18909 215.34424 239.6759 264.00757 276.16272 288.31787 298.03772 312.60681 334.48181 346.63696 358.79211 380.66711 392.82224 417.15393 431.72302 453.59802 465.75317 490.08484 499.80469 509.52454 533.8562 548.42529 560.58044 584.91211 597.06726 609.22241 621.37756 645.70923 670.04089 682.19604 706.52771 730.85938 767.30347 791.63513 803.79028 815.15503 841.87927 866.21094 890.5426 902.69775 914.85291 924.57275 939.14185 961.01685 973.172 985.32715 1009.6588 1019.3787 1043.7103 1065.5853 1089.917 1104.4861 1116.6412 1128.7964 1153.1281 1165.2832 1177.4384 1201.77 1211.4899 1235.8215 1257.6965 1269.8517 1294.1833 1306.3385 1318.4937 1340.3687 1364.7003 1401.1444 1425.4761 1437.6312 1461.9629 1471.6827 1496.0144 1520.3461 1532.5012 1544.6564 1568.988 1581.1432 1603.0182 1627.3499 1649.2249 1661.38 1683.255 1707.5867 1731.9183 1756.25 1765.9698 1790.3015 1802.4567 1826.7883 1851.12 1875.4517 1899.7833 1924.115 1948.4467 1970.3217 1994.6533 2006.8085 2018.9636 2043.2953 2055.4504 2067.6055 2091.9373 2116.269 2128.4241 2152.7559 2164.9109 2189.2427 2213.5742 2228.1433 2240.2983 2264.6301 2274.3501 2298.6816 2320.5566 2344.8882 2359.4575"
         y="828.125"
         id="tspan60"
         style="stroke-width:3.125">Picking the first storyteller of the game: The first player to think of something to say should announce to the other players</tspan></text><text
       style="font-variant:normal;font-weight:normal;font-size:43.75px;font-family:'Liberation Sans';-inkscape-font-specification:LiberationSans;writing-mode:lr-tb;fill:#333333;fill-opacity:1;fill-rule:nonzero;stroke:none;stroke-width:3.125"
       id="text66"
       x="50"
       y="890.625"><tspan
         x="50 62.155151 86.486816 110.81848 122.97363 135.12878 147.28394 171.6156 195.94727 217.82227 229.97742 261.57227 271.29211 281.01196 290.73181 302.88696 327.21863 351.55029 363.70544 375.8606 400.19226 424.52393 436.67905 458.55408 470.70923 495.04089 509.60999 531.48499 543.64014 567.9718 577.69165 587.4115 611.74316 626.31226 638.46741 650.62256 674.95422 689.52332 701.67847 713.83362 738.16528 762.49695 774.6521 786.80725 796.5271 811.09619 832.97119 845.12634 857.28149 881.61316 905.94482 942.38892 966.72058 978.87573 991.03088 1015.3625 1029.9316 1054.2633"
         y="890.625"
         id="tspan64"
         style="stroke-width:3.125">that they will be the storyteller for the first game turn.</tspan></text><text
       style="font-variant:normal;font-weight:bold;font-size:43.75px;font-family:'Liberation Sans';-inkscape-font-specification:LiberationSans-Bold;writing-mode:lr-tb;fill:#333333;fill-opacity:1;fill-rule:nonzero;stroke:none;stroke-width:3.125"
       id="text70"
       x="50"
       y="1012.5"><tspan
         x="50 81.594849 105.92651 132.65076 159.375 171.53015 198.25439 224.97864 237.13379 251.70288 278.42712 302.75879 314.91394 327.06909 365.96985 390.30148 417.02576 441.35745 453.51257 477.84424 502.1759 519.20166 545.9259 570.25757 582.41272 596.98181 623.70605 635.86121 650.4303 677.15454 701.48621 713.64136 737.97302 752.54211 779.26636 796.29211 820.62378 835.19287 859.52454 871.67969 883.83484 908.1665"
         y="1012.5"
         id="tspan68"
         style="stroke-width:3.125">Handing the image cards to the storyteller</tspan></text><text
       style="font-variant:normal;font-weight:normal;font-size:43.75px;font-family:'Liberation Sans';-inkscape-font-specification:LiberationSans;writing-mode:lr-tb;fill:#333333;fill-opacity:1;fill-rule:nonzero;stroke:none;stroke-width:3.125"
       id="text74"
       x="50"
       y="1131.25"><tspan
         x="50 76.724243 101.05591 125.38757 137.54272 161.87439 174.02954 198.36121 222.69287 237.26196 249.41711 273.74878 283.46863 307.80029 329.67529 354.00696 368.57608 390.45108 402.60617 424.48117 448.81287 473.14453 497.4762 519.3512 543.68286 555.83801 567.99316 582.56226 606.89392 643.33801 655.49316 679.82483 716.26892 740.60059 764.93225 789.26392 801.41907 813.57422 837.90588 862.23755 871.9574 886.52649 898.68164 923.01331 935.16846 944.88831 981.3324 1005.6641 1029.9957 1054.3274 1066.4825 1088.3575 1112.6892 1127.2583 1151.59 1173.465 1185.6201 1197.7753 1222.1069 1246.4386 1258.5938 1282.9254 1307.2571 1331.5887 1343.7439 1355.899 1380.2307 1404.5624 1426.4374 1438.5925 1462.9242 1487.2559 1496.9757 1506.6956 1531.0272 1552.9022 1577.2339 1589.389 1613.7207 1638.0524 1659.9274 1672.0825 1684.2377 1693.9575 1703.6774 1713.3972 1737.7289 1759.6039 1771.759 1786.3281 1810.6598 1822.8149 1847.1466 1869.0216 1881.1768 1912.7716 1937.1033 1961.4349 1973.5901 1985.7452 1997.9004 2022.2321 2046.5637 2058.7188 2080.5938 2092.749 2117.0806 2131.6499 2153.5249 2165.6799 2190.0117 2199.7314 2209.4512 2233.783 2248.3521 2260.5073 2284.8389 2309.1704 2331.0454 2343.2007 2365.0757 2389.4072 2399.1272 2423.459"
         y="1131.25"
         id="tspan72"
         style="stroke-width:3.125">The other players choose from among their 6 image cards the one they believe best illustrates what the storyteller has said.</tspan></text><text
       style="font-variant:normal;font-weight:normal;font-size:43.75px;font-family:'Liberation Sans';-inkscape-font-specification:LiberationSans;writing-mode:lr-tb;fill:#333333;fill-opacity:1;fill-rule:nonzero;stroke:none;stroke-width:3.125"
       id="text78"
       x="50"
       y="1193.75"><tspan
         x="50 79.180908 103.51257 125.38757 149.71924 161.87439 174.02954 198.36121 222.69287 247.02454 259.17969 283.51135 293.2312 315.1062 339.43787 361.31287 373.46805 385.62314 409.95483 434.2865 444.00635 458.57544 470.73059 492.60559 516.93726 541.26892 563.14392 587.47559 611.80725 623.9624 633.68225 670.12634 694.45801 718.78967 743.12134 755.27649 767.43164 791.76331 803.91846 816.07361 840.40527 864.73694 876.89209 898.76709 910.92224 935.25391 949.823 971.698 983.85315 1008.1848 1017.9047 1027.6245 1051.9562 1064.1113 1076.2665 1088.4216 1120.0165 1129.7363 1141.8915 1166.2231 1190.5548 1214.8865 1227.0416 1239.1968 1248.9166 1273.2483 1285.4034 1297.5586 1307.2784 1331.6101 1355.9418 1368.0969 1380.2521 1404.5837 1428.9154 1441.0706 1465.4022 1477.5574 1501.889 1526.2207 1540.7898 1552.9449 1577.2766 1586.9965 1611.3281 1633.2031 1657.5348 1672.1039 1693.9789 1706.134 1728.009 1752.3407 1776.6724 1788.8275 1798.5474 1810.7025 1822.8577 1834.2224 1860.9467 1885.2783 1909.61 1921.7651 1943.6401 1955.7953 1980.127 1994.696 2016.571 2028.7262 2053.0579 2062.7778 2072.4976 2096.8291 2111.3984 2123.5535 2145.4285 2169.7603 2194.0918 2205.4565 2217.6118 2227.3315 2251.6631 2273.5381 2285.6934 2297.8486 2322.1802"
         y="1193.75"
         id="tspan76"
         style="stroke-width:3.125">Each then gives their chosen image to the storyteller, without letting the other players see it. The storyteller shuffles the</tspan></text><text
       style="font-variant:normal;font-weight:normal;font-size:43.75px;font-family:'Liberation Sans';-inkscape-font-specification:LiberationSans;writing-mode:lr-tb;fill:#333333;fill-opacity:1;fill-rule:nonzero;stroke:none;stroke-width:3.125"
       id="text82"
       x="50"
       y="1256.25"><tspan
         x="50 74.331665 84.051514 105.92651 130.25818 154.58984 166.745 176.46484 212.90894 237.2406 261.57227 285.90393 298.05908 319.93408 344.26575 358.83484 383.1665 405.0415 417.19666 448.7915 458.51135 470.6665 494.99817 507.15332 519.30847 543.64014 567.9718 577.69165 592.26074 604.41589 628.74756 660.34241 684.67407 696.82922 708.98438 733.31604 757.64771 769.80286 794.13452 808.70361 833.03528 845.19043 859.75952 884.09119 905.96619 930.29785 954.62952 964.34937 974.06921 998.40088 1022.7325 1034.8877 1047.0428 1071.3745 1095.7062 1132.1503 1144.3054 1158.8745 1183.2062 1207.5378 1231.8695 1256.2012 1292.6453 1302.3651 1324.2401 1336.3953 1360.7269 1385.0586 1397.2137 1409.3689 1433.7006 1458.0322 1470.1874 1479.9072 1516.3513 1540.683 1565.0146 1589.3463 1601.5015 1623.3765 1647.7081 1672.0398 1693.9148 1718.2465 1740.1215 1752.2766 1776.6083 1800.9399 1837.384 1861.7157 1886.0474 1900.6165 1924.9481 1949.2798 1961.4349 1985.7666 1997.9218 2010.0769 2034.4086 2046.5637 2070.8955 2095.2271 2107.3823 2131.7139 2156.0454 2168.2007 2180.356 2204.6875"
         y="1256.25"
         id="tspan80"
         style="stroke-width:3.125">given image cards with their own, before revealing them randomly on the image spaces numbered 1 to 12 on the</tspan></text><text
       style="font-variant:normal;font-weight:normal;font-size:43.75px;font-family:'Liberation Sans';-inkscape-font-specification:LiberationSans;writing-mode:lr-tb;fill:#333333;fill-opacity:1;fill-rule:nonzero;stroke:none;stroke-width:3.125"
       id="text86"
       x="50"
       y="1318.75"><tspan
         x="50 71.875 93.75 118.08167 132.65076 156.98242 181.31409 205.64575 229.97742 244.54651 268.87817"
         y="1318.75"
         id="tspan84"
         style="stroke-width:3.125">scoreboard.</tspan></text><text
       style="font-variant:normal;font-weight:bold;font-size:43.75px;font-family:'Liberation Sans';-inkscape-font-specification:LiberationSans-Bold;writing-mode:lr-tb;fill:#333333;fill-opacity:1;fill-rule:nonzero;stroke:none;stroke-width:3.125"
       id="text90"
       x="50"
       y="1440.625"><tspan
         x="50 76.724243 88.879395 115.60364 142.32788 154.48303 181.20728 207.93152 220.08667 234.65576 261.38 285.71167 297.86682 322.19849 336.76758 363.49182 380.51755 404.84924 419.41833 443.75 455.90515 468.0603 492.39197 511.04126 521.57288 545.90454 558.05969 570.21484 609.1156 633.44727 660.17151 684.50317 699.07227 711.22742 725.79651 752.52075 776.85242 789.00757 813.33923 840.06348 854.63257"
         y="1440.625"
         id="tspan88"
         style="stroke-width:3.125">Finding the storyteller’s image: the vote</tspan></text><text
       style="font-variant:normal;font-weight:normal;font-size:43.75px;font-family:'Liberation Sans';-inkscape-font-specification:LiberationSans;writing-mode:lr-tb;fill:#333333;fill-opacity:1;fill-rule:nonzero;stroke:none;stroke-width:3.125"
       id="text94"
       x="50"
       y="1559.375"><tspan
         x="50 76.724243 101.05591 125.38757 137.54272 161.87439 186.20605 210.53772 220.25757 232.41272 244.56787 268.89954 283.46863 295.62378 307.77893 332.1106 356.44226 368.59741 392.92905 402.64893 426.98059 448.85559 473.18726 487.75635 509.63135 521.7865 531.50635 553.38135 565.5365 577.69165 602.02332 614.17847 626.33362 636.05347 660.38513 684.7168 696.87195 709.0271 733.35876 757.69043 769.84558 791.72058 803.87573 828.2074 842.77649 864.65149 876.80664 901.13831 910.85815 920.578 944.90967 961.10229 970.03174 991.90674 1004.0619 1013.7817 1050.2258 1074.5575 1098.8892 1123.2208 1135.376 1147.5311 1162.1002 1186.4319 1222.876 1235.0311 1259.3628 1295.8069 1320.1385 1344.4702 1368.8019 1380.957 1393.1122 1417.4438 1441.7755 1463.6505 1487.9822 1500.1373 1514.7064 1539.0381 1560.9131 1585.2448 1609.5764 1619.2963 1643.6279 1667.9596 1680.1147 1692.2699 1721.4508 1745.7825 1767.6575 1791.9891 1804.1443 1828.476 1838.1958 1862.5275 1884.4025 1908.7341 1923.3032 1935.4584 1957.3334 1981.665 2003.54 2018.1091 2042.4408 2054.5959 2064.3159 2086.1909 2098.3459 2120.2209 2144.5527 2156.7078 2181.0396 2202.9146 2215.0696 2227.2246 2251.5564 2266.1255 2278.2808 2290.4358 2314.7676"
         y="1559.375"
         id="tspan92"
         style="stroke-width:3.125">The goal for the players is to find the storyteller’s image from among those revealed. Each player secretly votes for the</tspan></text><text
       style="font-variant:normal;font-weight:normal;font-size:43.75px;font-family:'Liberation Sans';-inkscape-font-specification:LiberationSans;writing-mode:lr-tb;fill:#333333;fill-opacity:1;fill-rule:nonzero;stroke:none;stroke-width:3.125"
       id="text98"
       x="50"
       y="1621.875"><tspan
         x="50 59.719849 96.16394 120.49561 144.82727 169.15894 181.31409 193.46924 217.8009 242.13257 264.00757 276.16272 300.49438 324.82605 334.5459 344.26575 368.59741 390.47241 414.80405 426.95923 439.11438 463.44604 475.6012 499.93286 524.26453 536.41968 548.57483 572.90649 597.23816 609.39331 631.26831 643.42346 667.75513 682.32422 704.19922 716.35437 740.68604 750.40588 760.12573 784.4574 800.65002 809.57947 831.45447 843.60962 858.17871 870.33386 894.66553 918.99719 931.15234 953.02734 965.1825 989.51416 1004.0833 1025.9583 1038.1134 1062.4451 1072.1649 1081.8848 1106.2164 1120.7855 1132.9407 1157.2723 1181.604 1205.9357 1227.8107 1239.9658 1264.2975 1288.6292 1300.7843 1312.9395 1337.2711 1361.6028 1376.1719 1388.327 1398.0469 1419.9219 1429.6417 1453.9734 1478.3051 1490.4602 1514.7919 1529.361 1541.5161 1565.8478 1587.7228 1599.8779 1624.2096 1646.0846 1655.8044 1680.1361 1704.4678 1716.6229 1728.7781 1753.1097 1777.4414 1787.1613 1801.7303 1813.8855 1835.7605 1860.0922 1872.2473 1881.9672 1906.2988 1930.6305 1942.7856 1967.1173 1991.449 2015.7806 2030.3497 2054.6814 2066.8364 2078.9917 2105.7158 2130.0476 2144.6167 2156.772 2181.1035 2202.9785 2227.3101 2263.7544 2288.0859 2297.8057 2322.1375 2334.2925 2346.4478 2356.1675 2368.3228 2380.478"
         y="1621.875"
         id="tspan96"
         style="stroke-width:3.125">image they believe to be the storyteller’s (the storyteller does not participate) by using their voting board. For example, if a</tspan></text><text
       style="font-variant:normal;font-weight:normal;font-size:43.75px;font-family:'Liberation Sans';-inkscape-font-specification:LiberationSans;writing-mode:lr-tb;fill:#333333;fill-opacity:1;fill-rule:nonzero;stroke:none;stroke-width:3.125"
       id="text102"
       x="50"
       y="1684.375"><tspan
         x="50 74.331665 84.051514 108.38318 130.25818 154.58984 169.15894 181.31409 205.64575 229.97742 239.69727 249.41711 273.74878 295.62378 319.95544 341.83044 353.9856 366.14075 390.47241 414.80405 426.95923 439.11438 448.83423 485.27832 509.60999 533.94165 558.27332 570.42847 594.76013 619.0918 655.53589 679.86755 704.19922 718.76831 730.92346 755.25513 767.41028 777.13013 799.00513 811.16028 823.31543 847.64709 871.97876 884.13391 906.00891 918.16406 942.49573 957.06482 978.93982 991.09497 1015.4266 1025.1465 1034.8663 1059.198 1075.3906 1084.3201 1106.1951 1118.3502 1130.5054 1142.6605 1166.9922 1191.3239 1203.479 1215.6342 1239.9658 1249.6857 1274.0173 1295.8923 1320.224 1334.7931 1346.9482 1378.5431 1388.2629 1397.9828 1407.7026 1419.8578 1444.1895 1453.9093 1478.241 1500.116 1524.4476 1536.6028 1548.7579 1573.0896 1597.4213 1607.1411 1621.7102 1633.8654 1655.7404 1680.072 1692.2272 1701.947 1726.2787 1750.6104 1762.7655 1774.9207 1799.2523 1821.1273 1845.459 1869.7906 1881.9458 1906.2775 1930.6091 1942.7643 1964.6393 1988.9709 2013.3026 2035.1776 2059.5093 2071.6646 2095.9961 2120.3276 2156.772 2181.1035 2205.4351 2220.0044 2232.1594 2256.4912 2268.6462 2292.978 2305.1331 2317.2881 2329.4434 2353.7749 2378.1067 2387.8267"
         y="1684.375"
         id="tspan100"
         style="stroke-width:3.125">player believes that image number 3 is the storyteller’s, that player will place their voting token on space number 3 of their</tspan></text><text
       style="font-variant:normal;font-weight:normal;font-size:43.75px;font-family:'Liberation Sans';-inkscape-font-specification:LiberationSans;writing-mode:lr-tb;fill:#333333;fill-opacity:1;fill-rule:nonzero;stroke:none;stroke-width:3.125"
       id="text106"
       x="50"
       y="1746.875"><tspan
         x="50 62.155151 86.486816 110.81848 120.53833 144.87 157.02515 169.1803 181.33545 215.3656 239.69727 261.57227 285.90393 298.05908 322.39075 344.26575 368.59741 383.1665 405.0415 429.37314 453.70483 478.0365 490.19165 514.52332 538.85498 560.72998 572.88513 594.76013 619.0918 631.24695 655.57861 679.91028 692.06543 704.22058 728.55225 752.88391 774.75891 799.09058 811.24573 835.57739 845.29724 869.62891 891.50391 915.83557 930.40466 942.55981 957.12891 981.46057 1003.3356 1027.6672 1051.9989 1061.7188 1083.5938 1095.7489 1107.9041 1132.2357 1156.5674 1166.2872 1180.8563 1193.0115 1214.8865 1239.2181 1251.3733 1261.0931 1285.4248 1309.7565 1321.9116 1346.2433 1370.575 1394.9066 1409.4757 1433.8074 1445.9625 1458.1177 1482.4493 1506.781 1531.1127 1543.2678 1555.423 1579.7546 1604.0863 1616.2415 1638.1165 1650.2716 1674.6033 1689.1724 1711.0474 1723.2025 1747.5342 1757.254 1766.9739 1791.3055 1805.8746 1818.0298 1832.5989 1856.9305 1878.8055 1903.1372 1927.4689 1937.1887 1959.0637 1971.2189 2002.8137 2027.1454 2036.8652 2058.7402 2083.0718 2095.2271 2126.8218 2151.1536 2173.0286 2185.1836 2197.3389 2221.6704 2246.0022 2255.7222 2270.291 2282.4463 2292.166 2328.6104 2352.9419 2377.2734 2401.6052"
         y="1746.875"
         id="tspan104"
         style="stroke-width:3.125">tablet. Once everyone has voted, each player reveals their voting board, and the storyteller reveals which was their image.</tspan></text><text
       style="font-variant:normal;font-weight:normal;font-size:43.75px;font-family:'Liberation Sans';-inkscape-font-specification:LiberationSans;writing-mode:lr-tb;fill:#333333;fill-opacity:1;fill-rule:nonzero;stroke:none;stroke-width:3.125"
       id="text110"
       x="50"
       y="1853.125"><tspan
         x="50 81.594849 105.92651 118.08167 142.41333 154.56848 166.72363 191.0553 215.38696 239.71863 264.05029 278.61938 290.77454 315.1062 339.43787 351.59302 373.46805 383.18787 397.75696 419.63196 443.96362 480.40771 502.28271 514.43787 538.76953 563.1012 584.9762 609.30786 631.18286 643.33801 665.21301 689.54468 713.87634 726.03149 750.36316 762.51831 786.84998 796.56982 820.90149 842.77649 867.10815 881.67725 893.8324 915.7074 940.03906 952.19421 976.52588 988.68103 1000.8362 1025.1678 1039.7369 1051.8921 1064.0472 1088.3789 1112.7106 1122.4304 1136.9995 1149.1547 1173.4863 1205.0812 1229.4128 1241.568 1251.2878 1287.7319 1312.0636 1336.3953 1360.7269"
         y="1853.125"
         id="tspan108"
         style="stroke-width:3.125">Note: under no circumstances can a player vote for their own image!</tspan></text><text
       style="font-variant:normal;font-weight:normal;font-size:43.75px;font-family:'Liberation Sans';-inkscape-font-specification:LiberationSans;writing-mode:lr-tb;fill:#333333;fill-opacity:1;fill-rule:nonzero;stroke:none;stroke-width:3.125"
       id="text114"
       x="100"
       y="2009.375"><tspan
         x="100 126.72424 136.44409 160.77576 185.10742 194.82727 219.15894 243.4906 255.64575 267.8009 292.13257 316.46423 328.61938 350.49438 362.64954 386.9812 401.55029 423.42529 435.58044 459.91214 469.63196 479.35181 503.68347 519.8761 528.80554 550.68054 562.83569 572.55554 608.99963 633.3313 657.66296 681.99463 694.14978 725.74463 735.46448 747.61963 771.95129 784.10645 808.43811 820.59326 844.92493 859.49402 871.64917 908.09326 932.42493 946.99402 971.32568 983.48083 1007.8125 1017.5323 1041.864 1063.739 1088.0707 1102.6398 1124.5148 1136.6699 1165.8508 1190.1825 1212.0575 1236.3892 1248.5443 1272.876 1282.5958 1306.9275 1328.8025 1353.1342 1367.7032 1379.8584 1416.3025 1440.6342 1459.2621 1471.4172 1483.5724 1493.2922 1505.4474 1517.6025 1529.7577 1554.0894 1578.421 1600.296 1612.4512 1644.046 1653.7659 1675.6409 1699.9725 1712.1277 1724.2828 1748.6145 1760.7697 1785.1013 1809.433 1821.5881 1843.4631 1867.7948 1879.95 1892.1051 1913.9801 1938.3118 1950.4669 1974.7986 1986.9537 1999.1089 2023.4406 2038.0096 2050.1648 2074.4966 2086.6516 2108.5266 2132.8584 2154.7334 2179.0649 2203.3965 2227.7283 2239.8833 2249.6033 2286.0474 2310.3789 2334.7107 2359.0425 2371.1975 2380.9175"
         y="2009.375"
         id="tspan112"
         style="stroke-width:3.125">Finding the storyteller’s image with 7 or more players Each player may, if they wish to do so, vote for a second image if</tspan></text><text
       style="font-variant:normal;font-weight:normal;font-size:43.75px;font-family:'Liberation Sans';-inkscape-font-specification:LiberationSans;writing-mode:lr-tb;fill:#333333;fill-opacity:1;fill-rule:nonzero;stroke:none;stroke-width:3.125"
       id="text118"
       x="100"
       y="2071.875"><tspan
         x="100 112.15515 136.48682 160.81848 182.69348 194.84863 226.44348 250.77515 275.10681 287.26196 299.41711 311.57227 335.90393 348.05908 357.77893 382.1106 403.9856 418.55469 442.88635 467.21805 489.09305 513.42468 525.57983 537.73499 562.06665 586.39832 596.11816 610.68726 622.84241 644.71741 669.04907 693.38074 717.7124 739.5874 763.91907 776.07422 800.40588 812.56104 824.71619 846.59119 870.92285 892.79785 914.67285 939.00452 960.87952 982.75452 994.90967 1006.2744 1032.9987 1057.3303 1081.662 1103.537 1115.6921 1147.287 1157.0068 1166.7267 1176.4465 1188.6017 1212.9333 1234.8083 1259.14 1271.2952 1283.4503 1307.782 1332.1136 1341.8335 1356.4026 1368.5577 1390.4327 1414.7644 1436.6394 1460.9711 1485.3027 1509.6344 1521.7896 1543.6646 1567.9962 1580.1514 1589.8712 1614.2029 1638.5345 1650.6897 1662.8448 1687.1765 1709.0515 1733.3832 1757.7148 1769.87 1782.0251 1806.3568 1818.512 1840.387 1864.7186 1889.0503 1913.382 1935.257 1959.5886 1971.7438 1996.0754 2008.2306 2030.1056 2054.4373 2076.3123 2100.644 2124.9756 2149.3071 2161.4624 2171.1821 2207.6265 2231.958 2256.2896 2280.6213 2292.7764 2304.9316 2319.5007 2343.8325"
         y="2071.875"
         id="tspan116"
         style="stroke-width:3.125">they want to increase their chance of success. They will use their second voting token to choose a second image from</tspan></text><text
       style="font-variant:normal;font-weight:normal;font-size:43.75px;font-family:'Liberation Sans';-inkscape-font-specification:LiberationSans;writing-mode:lr-tb;fill:#333333;fill-opacity:1;fill-rule:nonzero;stroke:none;stroke-width:3.125"
       id="text122"
       x="100"
       y="2134.375"><tspan
         x="100 124.33167 160.77576 185.10742 209.43909 233.77075 245.9259 258.08105 282.41272 306.74438 328.61938 352.95105 365.1062 389.43787 411.31287 435.64453 459.9762 481.8512 506.18286 530.51453"
         y="2134.375"
         id="tspan120"
         style="stroke-width:3.125">among those exposed.</tspan></text></g></svg>
