<?xml version="1.0" encoding="UTF-8" standalone="no"?>
<!-- Created with Inkscape (http://www.inkscape.org/) -->

<svg
   version="1.1"
   id="svg2"
   xml:space="preserve"
   width="803.6427"
   height="777.9552"
   viewBox="0 0 803.6427 777.95518"
   xmlns="http://www.w3.org/2000/svg"
   xmlns:svg="http://www.w3.org/2000/svg"><defs
     id="defs6"><clipPath
       clipPathUnits="userSpaceOnUse"
       id="clipPath16"><path
         d="M 0,0 H 6000 V 4662.5 H 0 Z"
         clip-rule="evenodd"
         id="path14" /></clipPath></defs><g
     id="g8"
     transform="scale(0.31999998)"><path
       d="M 0,0 H 2511.3836 V 2431.1102 H 0 Z"
       style="fill:#fff5ee;fill-opacity:1;fill-rule:nonzero;stroke:none;stroke-width:1.4599"
       id="path20" /><path
       d="M 49.632431,1171.1563 V 636.78133 c 0,-2.0519 0.2001,-4.0842 0.6004,-6.0967 0.4003,-2.0124 0.9931,-3.9667 1.7783,-5.8624 0.7853,-1.8957 1.7479,-3.6966 2.8878,-5.4026 1.14,-1.7061 2.4355,-3.2846 3.8864,-4.7355 1.4509,-1.4511 3.0294,-2.7466 4.7355,-3.8864 1.7061,-1.1401 3.507,-2.1027 5.4027,-2.8879 1.8957,-0.7851 3.8498,-1.3777 5.8623,-1.7781 2.0125,-0.4003 4.0447,-0.6004 6.0966,-0.6004 H 2418.3824 c 2.0518,0 4.0838,0.2 6.0963,0.6004 2.0124,0.4004 3.9665,0.9932 5.8622,1.7783 1.8955,0.785 3.6964,1.7476 5.4026,2.8877 1.7061,1.1398 3.2848,2.4353 4.7357,3.8864 1.451,1.4509 2.7464,3.0292 3.8865,4.7354 1.14,1.7061 2.1024,3.5068 2.8877,5.4025 0.7852,1.8957 1.378,3.85 1.7784,5.8625 0.4003,2.0126 0.6004,4.0449 0.6006,6.0968 v 534.37497 c -2e-4,2.0519 -0.2003,4.0841 -0.6006,6.0963 -0.4004,2.0128 -0.9932,3.9668 -1.7784,5.8625 -0.7853,1.8959 -1.7477,3.6968 -2.8877,5.4031 -1.1401,1.7059 -2.4355,3.2844 -3.8865,4.735 -1.4509,1.4509 -3.0296,2.7462 -4.7357,3.8862 -1.7062,1.1397 -3.5071,2.1022 -5.4026,2.8878 -1.8957,0.785 -3.8498,1.3779 -5.8622,1.7782 -2.0125,0.4003 -4.0445,0.6006 -6.0963,0.6009 H 80.882431 c -2.0519,-3e-4 -4.0841,-0.2 -6.0966,-0.6009 -2.0125,-0.4003 -3.9666,-0.9932 -5.8623,-1.7782 -1.8957,-0.7856 -3.6966,-1.7481 -5.4027,-2.8875 -1.7061,-1.1403 -3.2846,-2.4356 -4.7355,-3.8865 -1.4509,-1.4506 -2.7464,-3.0291 -3.8864,-4.735 -1.1399,-1.7063 -2.1025,-3.5072 -2.8878,-5.4031 -0.7852,-1.8957 -1.378,-3.8497 -1.7783,-5.8625 -0.4003,-2.0122 -0.6004,-4.0444 -0.6004,-6.0963 z"
       style="fill:#fde0c1;fill-opacity:1;fill-rule:nonzero;stroke:none;stroke-width:3.125"
       id="path26" /><path
       d="m 49.632431,1736.7813 v -93.75 c 0,-2.0522 0.2001,-4.0847 0.6004,-6.0969 0.4003,-2.0128 0.9931,-3.9672 1.7783,-5.8625 0.7853,-1.8956 1.7479,-3.6965 2.8878,-5.4028 1.14,-1.7059 2.4355,-3.2844 3.8864,-4.7353 1.4509,-1.4509 3.0294,-2.7466 4.7355,-3.8863 1.7061,-1.1403 3.507,-2.1028 5.4027,-2.8878 1.8957,-0.785 3.8498,-1.3778 5.8623,-1.7781 2.0125,-0.4 4.0447,-0.6 6.0966,-0.6003 H 2418.3824 c 2.0518,3e-4 4.0838,0.2 6.0963,0.6003 2.0124,0.4003 3.9665,0.9931 5.8622,1.7781 1.8955,0.785 3.6964,1.7475 5.4026,2.8875 1.7061,1.14 3.2848,2.4357 4.7357,3.8866 1.451,1.4509 2.7464,3.0294 3.8865,4.7353 1.14,1.7063 2.1024,3.5072 2.8877,5.4028 0.7852,1.8953 1.378,3.8497 1.7784,5.8625 0.4003,2.0122 0.6004,4.0447 0.6006,6.0969 v 93.75 c -2e-4,2.0519 -0.2003,4.0838 -0.6006,6.0959 -0.4004,2.0122 -0.9932,3.9666 -1.7784,5.8619 -0.7853,1.8956 -1.7477,3.6966 -2.8877,5.4028 -1.1401,1.706 -2.4355,3.2847 -3.8865,4.736 -1.4509,1.4509 -3.0296,2.7462 -4.7357,3.8859 -1.7062,1.14 -3.5071,2.1028 -5.4026,2.8884 -1.8957,0.7854 -3.8498,1.3782 -5.8622,1.7788 -2.0125,0.4 -4.0445,0.6003 -6.0963,0.6003 H 80.882431 c -2.0519,0 -4.0841,-0.2 -6.0966,-0.6003 -2.0125,-0.4006 -3.9666,-0.9934 -5.8623,-1.7788 -1.8957,-0.7856 -3.6966,-1.7484 -5.4027,-2.8884 -1.7061,-1.1397 -3.2846,-2.435 -4.7355,-3.8859 -1.4509,-1.4513 -2.7464,-3.03 -3.8864,-4.736 -1.1399,-1.7062 -2.1025,-3.5072 -2.8878,-5.4028 -0.7852,-1.8953 -1.378,-3.8497 -1.7783,-5.8619 -0.4003,-2.0121 -0.6004,-4.044 -0.6004,-6.0959 z"
       style="fill:#191d30;fill-opacity:1;fill-rule:nonzero;stroke:none;stroke-width:3.125"
       id="path28" /><path
       d="m 49.632431,2105.5313 v -93.75 c 0,-2.0519 0.2001,-4.0844 0.6004,-6.0969 0.4003,-2.0125 0.9931,-3.9665 1.7783,-5.8622 0.7853,-1.8956 1.7479,-3.6965 2.8878,-5.4028 1.14,-1.7059 2.4355,-3.2844 3.8864,-4.735 1.4509,-1.4512 3.0294,-2.7465 4.7355,-3.8869 1.7061,-1.14 3.507,-2.1021 5.4027,-2.8878 1.8957,-0.785 3.8498,-1.3778 5.8623,-1.7781 2.0125,-0.4 4.0447,-0.6003 6.0966,-0.6003 H 2418.3824 c 2.0518,0 4.0838,0.2 6.0963,0.6003 2.0124,0.4003 3.9665,0.9931 5.8622,1.7781 1.8955,0.7857 3.6964,1.7478 5.4026,2.8882 1.7061,1.14 3.2848,2.4353 4.7357,3.8865 1.451,1.4506 2.7464,3.0291 3.8865,4.735 1.14,1.7063 2.1024,3.5072 2.8877,5.4028 0.7852,1.8957 1.378,3.8497 1.7784,5.8622 0.4003,2.0125 0.6004,4.045 0.6006,6.0969 v 93.75 c -2e-4,2.0519 -0.2003,4.0844 -0.6006,6.0966 -0.4004,2.0125 -0.9932,3.9662 -1.7784,5.8618 -0.7853,1.8953 -1.7477,3.6963 -2.8877,5.4022 -1.1401,1.7063 -2.4355,3.285 -3.8865,4.736 -1.4509,1.4509 -3.0296,2.7462 -4.7357,3.8865 -1.7062,1.1397 -3.5071,2.1022 -5.4026,2.8878 -1.8957,0.785 -3.8498,1.3778 -5.8622,1.7782 -2.0125,0.4003 -4.0445,0.6006 -6.0963,0.6009 H 80.882431 c -2.0519,-3e-4 -4.0841,-0.2 -6.0966,-0.6009 -2.0125,-0.4004 -3.9666,-0.9932 -5.8623,-1.7782 -1.8957,-0.7856 -3.6966,-1.7481 -5.4027,-2.8884 -1.7061,-1.1397 -3.2846,-2.435 -4.7355,-3.8859 -1.4509,-1.451 -2.7464,-3.0297 -3.8864,-4.7357 -1.1399,-1.7062 -2.1025,-3.5072 -2.8878,-5.4025 -0.7852,-1.8956 -1.378,-3.8493 -1.7783,-5.8622 -0.4003,-2.0121 -0.6004,-4.0443 -0.6004,-6.0962 z"
       style="fill:#191d30;fill-opacity:1;fill-rule:nonzero;stroke:none;stroke-width:3.125"
       id="path30" /><text
       style="font-variant:normal;font-weight:bold;font-size:43.75px;font-family:'Liberation Sans';-inkscape-font-specification:LiberationSans-Bold;writing-mode:lr-tb;fill:#333333;fill-opacity:1;fill-rule:nonzero;stroke:none;stroke-width:3.125"
       id="text126"
       x="49.63221"
       y="68.031357"><tspan
         x="49.63221 78.813179 103.14497 129.86908 146.89496 159.04999 185.77435"
         y="68.031357"
         id="tspan124"
         style="stroke-width:3.125">Scoring</tspan></text><path
       d="m 140.25743,177.40633 c 0,0.8288 -0.1586,1.6258 -0.4758,2.3916 -0.3172,0.7656 -0.7688,1.4416 -1.3548,2.0277 -0.5861,0.5862 -1.262,1.0376 -2.0277,1.3548 -0.7657,0.3172 -1.5629,0.4757 -2.3917,0.4759 -0.8288,-2e-4 -1.6261,-0.1587 -2.3918,-0.4761 -0.7657,-0.317 -1.4416,-0.7684 -2.0277,-1.3546 -0.586,-0.5861 -1.0376,-1.2621 -1.3548,-2.0277 -0.3172,-0.7658 -0.4757,-1.5628 -0.4757,-2.3916 0,-0.8289 0.1585,-1.6262 0.4757,-2.392 0.3172,-0.7658 0.7688,-1.4416 1.3548,-2.0275 0.5861,-0.5862 1.262,-1.0378 2.0277,-1.355 0.7657,-0.317 1.563,-0.4755 2.3918,-0.4755 0.8288,0 1.626,0.1584 2.3917,0.4755 0.7657,0.3172 1.4416,0.7688 2.0277,1.355 0.586,0.5859 1.0376,1.2617 1.3548,2.0275 0.3172,0.7658 0.4758,1.5631 0.4758,2.392 z"
       style="fill:#333333;fill-opacity:1;fill-rule:nonzero;stroke:none;stroke-width:3.125"
       id="path128" /><text
       style="font-variant:normal;font-weight:normal;font-size:43.75px;font-family:'Liberation Sans';-inkscape-font-specification:LiberationSans;writing-mode:lr-tb;fill:#333333;fill-opacity:1;fill-rule:nonzero;stroke:none;stroke-width:3.125"
       id="text132"
       x="174.63226"
       y="189.90636"><tspan
         x="174.63226 186.78754 198.94257 211.09784 235.42938 245.14935 254.86908 267.02435 291.3559 301.07587 325.40741 347.28241 371.6142 386.18329 408.05829 420.21332 432.36859 442.08832 466.4201 490.75165 502.90692 515.06195 539.39374 563.72534 575.88062 597.75562 609.91064 634.24243 648.81152 670.68652 682.84155 707.17334 716.89307 726.61304 750.94458 767.13721 776.06665 797.94165 810.09692 819.81665 856.26074 880.59253 904.92407 929.25586 941.41089 953.5661 977.89764 992.46674 1004.622 1014.3418 1026.4971 1038.6521 1062.9839 1087.3154 1099.4707 1123.8022 1133.5222 1157.8538 1179.7288 1204.0605 1218.6296 1230.7847 1242.9399 1252.6597 1276.9915 1301.323 1323.198 1335.3533 1345.073 1357.2283 1369.3833 1381.5386 1393.6936 1418.0254 1442.3569 1454.5122 1476.3872 1488.5422 1512.874 1527.4431 1549.3181 1561.4734 1585.8049 1595.5247 1605.2444 1629.5764 1644.1453 1656.3005 1678.1755 1700.0505 1724.3821 1738.9514 1763.283 1785.158 1797.3132 1821.6448 1845.9763 1858.1316 1882.4631 1906.7947 1916.5149 1940.8464 1953.0017 1974.8767 1987.0315 2011.3635 2035.6951 2060.0266 2072.1819 2084.3372 2108.6687 2133.0002 2145.1555 2169.4871 2181.6423 2205.9739 2230.3059 2244.8748 2257.03 2281.3616 2291.0813 2315.4133 2337.2883 2361.6199 2376.1887"
         y="189.90636"
         id="tspan130"
         style="stroke-width:3.125">If all players find the storyteller’s image, or if no player finds it, the storyteller scores no points and the other players</tspan></text><text
       style="font-variant:normal;font-weight:normal;font-size:43.75px;font-family:'Liberation Sans';-inkscape-font-specification:LiberationSans;writing-mode:lr-tb;fill:#333333;fill-opacity:1;fill-rule:nonzero;stroke:none;stroke-width:3.125"
       id="text136"
       x="174.63226"
       y="249.2813"><tspan
         x="174.63226 198.96405 223.29559 245.17059 269.50238 281.65741 303.53241 325.40741 349.7392 364.30829 388.63983 400.7951 425.12665 437.28192 461.61346 485.94525 495.66498 519.99677 532.15179 554.02679"
         y="249.2813"
         id="tspan134"
         style="stroke-width:3.125">each score 2 points.</tspan></text><path
       d="m 140.25743,299.28133 c 0,0.8288 -0.1586,1.6258 -0.4758,2.3914 -0.3172,0.7658 -0.7688,1.4418 -1.3548,2.0279 -0.5861,0.586 -1.262,1.0376 -2.0277,1.3548 -0.7657,0.3172 -1.5629,0.4757 -2.3917,0.4759 -0.8288,-2e-4 -1.6261,-0.1587 -2.3918,-0.4759 -0.7657,-0.3172 -1.4416,-0.7688 -2.0277,-1.3548 -0.586,-0.5861 -1.0376,-1.2621 -1.3548,-2.0279 -0.3172,-0.7656 -0.4757,-1.5626 -0.4757,-2.3914 0,-0.8289 0.1585,-1.6262 0.4757,-2.392 0.3172,-0.7658 0.7688,-1.4418 1.3548,-2.0275 0.5861,-0.5862 1.262,-1.0376 2.0277,-1.3548 0.7657,-0.3172 1.563,-0.4757 2.3918,-0.4757 0.8288,0 1.626,0.1584 2.3917,0.4757 0.7657,0.3172 1.4416,0.7686 2.0277,1.3548 0.586,0.5857 1.0376,1.2617 1.3548,2.0275 0.3172,0.7658 0.4758,1.5631 0.4758,2.392 z"
       style="fill:#333333;fill-opacity:1;fill-rule:nonzero;stroke:none;stroke-width:3.125"
       id="path138" /><text
       style="font-variant:normal;font-weight:normal;font-size:43.75px;font-family:'Liberation Sans';-inkscape-font-specification:LiberationSans;writing-mode:lr-tb;fill:#333333;fill-opacity:1;fill-rule:nonzero;stroke:none;stroke-width:3.125"
       id="text142"
       x="174.63226"
       y="311.78128"><tspan
         x="174.63226 186.78754 211.11908 223.27435 247.6059 271.93768 293.81268 305.96771 330.2995 342.45453 366.78632 391.11786 405.68695 417.84222 439.71722 464.04877 485.92377 510.25555 522.41058 534.56586 546.72089 571.05273 595.38428 607.53955 629.41455 641.56958 665.90137 680.47046 702.34546 714.50049 738.83228 748.552 758.27197 782.60352 797.17261 809.32788 831.20288 853.07788 877.40942 891.97852 916.3103 938.1853 950.34027 974.67206 986.82709 1011.1589 1035.4905 1045.2104 1069.542 1081.6973 1103.5723 1115.7273 1140.0591 1161.9341 1174.0891 1198.4209 1222.7524 1247.0842 1268.9592 1281.1143 1305.446 1329.7776 1351.6526 1363.8079 1388.1394 1397.8594 1422.1909 1444.0659 1468.3977 1482.9668 1495.1218 1526.7166 1551.0486 1575.3801 1587.5354 1611.8669 1636.1985 1658.0735 1670.2288 1682.384 1706.7156 1731.0471 1755.3787 1779.7107 1791.8655 1804.0208 1828.3523 1852.6843 1864.8391 1886.7141 1898.8694 1923.2009 1937.7703 1959.6453 1971.8005 1996.1321 2005.8518 2015.5715 2039.9036 2056.0959 2065.0256 2086.9006 2099.0559 2108.7756 2145.2195 2169.5515 2193.8831 2218.2146"
         y="311.78128"
         id="tspan140"
         style="stroke-width:3.125">In any other case, the storyteller scores 3 points as does any player who has found the storyteller’s image.</tspan></text><path
       d="m 140.25743,361.78133 c 0,0.8288 -0.1586,1.6258 -0.4758,2.3914 -0.3172,0.7658 -0.7688,1.4418 -1.3548,2.0279 -0.5861,0.586 -1.262,1.0376 -2.0277,1.3548 -0.7657,0.3172 -1.5629,0.4757 -2.3917,0.4759 -0.8288,-2e-4 -1.6261,-0.1587 -2.3918,-0.4759 -0.7657,-0.3172 -1.4416,-0.7688 -2.0277,-1.3548 -0.586,-0.5861 -1.0376,-1.2621 -1.3548,-2.0279 -0.3172,-0.7656 -0.4757,-1.5626 -0.4757,-2.3914 0,-0.8291 0.1585,-1.6264 0.4757,-2.3922 0.3172,-0.7656 0.7688,-1.4414 1.3548,-2.0273 0.5861,-0.5862 1.262,-1.0378 2.0277,-1.355 0.7657,-0.317 1.563,-0.4755 2.3918,-0.4755 0.8288,0 1.626,0.1584 2.3917,0.4755 0.7657,0.3172 1.4416,0.7688 2.0277,1.355 0.586,0.5859 1.0376,1.2617 1.3548,2.0275 0.3172,0.7656 0.4758,1.5629 0.4758,2.392 z"
       style="fill:#333333;fill-opacity:1;fill-rule:nonzero;stroke:none;stroke-width:3.125"
       id="path144" /><text
       style="font-variant:normal;font-weight:normal;font-size:43.75px;font-family:'Liberation Sans';-inkscape-font-specification:LiberationSans;writing-mode:lr-tb;fill:#333333;fill-opacity:1;fill-rule:nonzero;stroke:none;stroke-width:3.125"
       id="text148"
       x="174.63226"
       y="374.28128"><tspan
         x="174.63226 203.81317 228.14496 250.01996 274.3515 286.50677 310.83832 320.55829 344.88983 366.76483 391.09662 405.66571 417.82074 442.15253 454.30756 478.63934 502.97089 517.53998 529.69525 541.85028 566.18213 590.51367 614.84546 627.00049 639.15576 663.4873 687.81909 699.97412 721.84912 734.00439 758.33594 772.90503 794.78003 806.9353 831.26685 840.98682 850.70654 875.03833 889.60742 901.76245 923.63745 945.51239 969.84424 984.41327 1008.7449 1030.6199 1042.7751 1067.1067 1079.262 1103.5935 1127.9253 1152.2568 1176.5886 1198.4636 1210.6187 1234.9504 1259.282 1269.002 1293.3335 1305.4888 1317.6438 1329.7991 1354.1306 1368.6997 1380.855 1405.1865 1429.5183 1451.3933 1475.7249 1487.8801 1509.7551 1534.0867 1546.2419 1570.5735 1582.7288 1607.0603 1631.3918 1645.9612 1670.2927 1694.6243 1718.9563 1731.1111 1755.4431 1777.3181 1789.4729 1801.6282 1825.9597 1850.2917 1860.0115 1874.5803 1886.7356 1896.4553 1932.8997 1957.2312 1981.5627 2005.8948 2018.0496 2032.6189 2044.7742 2069.1057 2081.261 2105.5925 2117.7478 2154.1917 2178.5237 2200.3987 2210.1184 2246.5623 2270.8943 2307.3381 2319.4934 2343.825 2355.9802 2368.1355"
         y="374.28128"
         id="tspan146"
         style="stroke-width:3.125">Each player other than the storyteller scores 1 bonus point for each vote earned by their image (to a maximum of 3</tspan></text><text
       style="font-variant:normal;font-weight:normal;font-size:43.75px;font-family:'Liberation Sans';-inkscape-font-specification:LiberationSans;writing-mode:lr-tb;fill:#333333;fill-opacity:1;fill-rule:nonzero;stroke:none;stroke-width:3.125"
       id="text152"
       x="174.63226"
       y="436.78128"><tspan
         x="174.63226 198.96405 223.29559 247.62738 271.95892 293.83392 305.9892 330.32074 354.65253 364.37225 388.70404 400.85907 422.73407 437.30316"
         y="436.78128"
         id="tspan150"
         style="stroke-width:3.125">bonus points).</tspan></text><text
       style="font-variant:normal;font-weight:normal;font-size:43.75px;font-family:'Liberation Sans';-inkscape-font-specification:LiberationSans;writing-mode:lr-tb;fill:#333333;fill-opacity:1;fill-rule:nonzero;stroke:none;stroke-width:3.125"
       id="text156"
       x="49.63221"
       y="543.03137"><tspan
         x="49.63221 76.356636 100.68818 125.01997 137.17499 161.50677 171.2265 195.55829 217.43329 241.76483 256.33392 278.20892 290.3642 326.80829 351.13983 373.01483 397.34662 409.50165 421.65692 445.98846 470.32025 480.03998 494.60907 506.76434 521.33344 545.66498 569.99683 594.32837 604.04834 616.20337 628.35864 640.51367 664.84546 686.72046 711.052 735.38379 747.53882 771.87061 796.20215 808.35742 820.51245 844.84424 869.17578 881.33105 903.20605 925.08105 949.41254 963.98163 988.31342 1000.4684 1012.6238 1027.1929 1051.5244 1073.3994 1095.2744 1107.4297 1131.7612 1153.6362 1165.7915 1202.2356 1226.5671 1250.8989 1272.7739 1284.929 1306.804 1331.1357 1355.4673 1377.3423 1401.6741 1423.5491 1435.7041 1460.0359 1481.9109 1494.0659 1506.2212 1530.553 1554.8845 1576.7595 1586.4792 1608.3542 1632.6858 1644.8411 1669.1726 1693.5046 1703.2244 1727.5559 1751.8875 1776.2195 1788.3743 1812.7063 1837.0378 1846.7576 1871.0891 1883.2444 1905.1194"
         y="543.03137"
         id="tspan154"
         style="stroke-width:3.125">The players move their rabbit token on the score track as many spaces as they’ve gained points.</tspan></text><text
       style="font-variant:normal;font-weight:bold;font-size:43.75px;font-family:'Liberation Sans';-inkscape-font-specification:LiberationSans-Bold;writing-mode:lr-tb;fill:#333333;fill-opacity:1;fill-rule:nonzero;stroke:none;stroke-width:3.125"
       id="text160"
       x="99.632271"
       y="699.28137"><tspan
         x="99.632271 128.81317 153.14496 179.86908 196.89496 209.04999 235.77435 262.49847 274.65375 308.68378 320.83905 335.40814 362.13226 374.28754 398.61908 410.77435 437.49847 454.52435 466.67938 505.58026 532.30438 549.33026 573.66187 585.81714 612.54126 624.69653 649.02808 673.35986 697.69141 714.71729"
         y="699.28137"
         id="tspan158"
         style="stroke-width:3.125">Scoring with 7 or more players</tspan></text><path
       d="m 190.25743,808.65633 c 0,0.8286 -0.1586,1.6256 -0.4758,2.3913 -0.3172,0.7655 -0.7688,1.4415 -1.3548,2.0278 -0.5861,0.586 -1.262,1.0374 -2.0277,1.3547 -0.7657,0.3171 -1.5629,0.476 -2.3917,0.4762 -0.8288,-2e-4 -1.6261,-0.1591 -2.3918,-0.4762 -0.7657,-0.3173 -1.4416,-0.7687 -2.0277,-1.3547 -0.586,-0.5863 -1.0376,-1.2623 -1.3548,-2.0278 -0.3172,-0.7657 -0.4757,-1.5627 -0.4757,-2.3913 0,-0.8291 0.1585,-1.6264 0.4757,-2.3922 0.3172,-0.7656 0.7688,-1.4414 1.3548,-2.0273 0.5861,-0.5862 1.262,-1.0378 2.0277,-1.355 0.7657,-0.317 1.563,-0.4755 2.3918,-0.4755 0.8288,0 1.626,0.1584 2.3917,0.4755 0.7657,0.3172 1.4416,0.7688 2.0277,1.355 0.586,0.5859 1.0376,1.2617 1.3548,2.0275 0.3172,0.7656 0.4758,1.5629 0.4758,2.392 z"
       style="fill:#333333;fill-opacity:1;fill-rule:nonzero;stroke:none;stroke-width:3.125"
       id="path162" /><text
       style="font-variant:normal;font-weight:normal;font-size:43.75px;font-family:'Liberation Sans';-inkscape-font-specification:LiberationSans;writing-mode:lr-tb;fill:#333333;fill-opacity:1;fill-rule:nonzero;stroke:none;stroke-width:3.125"
       id="text166"
       x="224.63226"
       y="821.15637"><tspan
         x="224.63226 236.78754 248.94257 261.09784 285.42938 295.14935 304.86908 317.02435 341.3559 351.07587 375.40741 397.28241 421.6142 436.18329 458.05829 470.21332 482.36859 492.08832 516.4201 540.75165 552.90692 565.06201 589.3938 613.72534 625.88062 647.75562 659.91064 684.24243 698.81152 720.68652 732.84155 757.17334 766.89307 776.61304 800.94458 817.13721 826.06665 847.94165 860.09692 869.81665 906.26074 930.59253 954.92401 979.2558 991.41083 1003.5661 1027.8977 1042.4668 1054.6221 1064.3418 1076.4971 1088.6521 1112.9839 1137.3154 1149.4707 1173.8022 1183.5222 1207.8538 1229.7288 1254.0605 1268.6296 1280.7847 1292.9399 1302.6597 1326.9915 1351.323 1373.198 1385.3533 1395.073 1407.2283 1419.3833 1431.5386 1443.6936 1468.0254 1492.3569 1504.5122 1526.387 1538.5422 1562.8738 1577.4431 1599.3181 1611.4734 1635.8049 1645.5247 1655.2444 1679.5764 1694.1453 1706.3005 1728.1755 1750.0505 1774.3821 1788.9514 1813.283 1835.158 1847.3132 1871.6448 1895.9763 1908.1316 1932.4631 1956.7947 1966.5149 1990.8464 2003.0017 2024.8767 2037.0315 2061.3635 2085.6951 2110.0266 2122.1819 2134.3372 2158.6687 2183.0002 2195.1555 2219.4871 2231.6423 2255.9739 2280.3059"
         y="821.15637"
         id="tspan164"
         style="stroke-width:3.125">If all players find the storyteller’s image, or if no player finds it, the storyteller scores no points and the other</tspan></text><text
       style="font-variant:normal;font-weight:normal;font-size:43.75px;font-family:'Liberation Sans';-inkscape-font-specification:LiberationSans;writing-mode:lr-tb;fill:#333333;fill-opacity:1;fill-rule:nonzero;stroke:none;stroke-width:3.125"
       id="text170"
       x="224.63226"
       y="883.65637"><tspan
         x="224.63226 248.96405 258.68378 283.01556 304.89056 329.22211 343.7912 365.6662 377.82147 402.15302 426.4848 448.3598 472.69135 484.84662 506.72162 528.59662 552.92816 567.49731 591.8291 603.98413 628.31592 640.47095 664.80273 689.13428 698.85425 723.18579 735.34106 757.21606"
         y="883.65637"
         id="tspan168"
         style="stroke-width:3.125">players each score 2 points.</tspan></text><path
       d="m 190.25743,933.65633 c 0,0.8284 -0.1586,1.6256 -0.4758,2.3913 -0.3172,0.7656 -0.7688,1.4418 -1.3548,2.0278 -0.5861,0.5859 -1.262,1.0375 -2.0277,1.3547 -0.7657,0.3171 -1.5629,0.4759 -2.3917,0.4762 -0.8288,-3e-4 -1.6261,-0.1594 -2.3918,-0.4762 -0.7657,-0.3172 -1.4416,-0.7688 -2.0277,-1.3547 -0.586,-0.586 -1.0376,-1.2622 -1.3548,-2.0278 -0.3172,-0.7657 -0.4757,-1.5629 -0.4757,-2.3913 0,-0.8291 0.1585,-1.6262 0.4757,-2.3922 0.3172,-0.7659 0.7688,-1.4416 1.3548,-2.0275 0.5861,-0.5862 1.262,-1.0375 2.0277,-1.3547 0.7657,-0.3172 1.563,-0.4756 2.3918,-0.4756 0.8288,0 1.626,0.1594 2.3917,0.4756 0.7657,0.3172 1.4416,0.7685 2.0277,1.3547 0.586,0.5859 1.0376,1.2616 1.3548,2.0275 0.3172,0.766 0.4758,1.5631 0.4758,2.3922 z"
       style="fill:#333333;fill-opacity:1;fill-rule:nonzero;stroke:none;stroke-width:3.125"
       id="path172" /><text
       style="font-variant:normal;font-weight:normal;font-size:43.75px;font-family:'Liberation Sans';-inkscape-font-specification:LiberationSans;writing-mode:lr-tb;fill:#333333;fill-opacity:1;fill-rule:nonzero;stroke:none;stroke-width:3.125"
       id="text176"
       x="224.63226"
       y="946.15637"><tspan
         x="224.63226 236.78754 261.11908 273.27435 297.6059 321.93768 343.81268 355.96771 380.2995 392.45453 416.78632 441.11786 455.68695 467.84222 489.71722 514.04877 535.92377 560.25562 572.41064 584.56592 596.72095 621.05273 645.38428 657.53955 679.41455 691.56958 715.90137 730.47046 752.34546 764.50049 788.83228 798.552 808.27197 832.60352 847.17261 859.32788 881.20288 903.07788 927.40942 941.97852 966.31024 988.18524 1000.3403 1024.6721 1036.8271 1061.1589 1085.4905 1095.2104 1119.542 1131.6973 1153.5723 1165.7273 1190.0591 1211.9341 1224.0891 1248.4209 1272.7524 1297.0842 1318.9592 1331.1143 1355.446 1379.7776 1401.6526 1413.8079 1438.1394 1447.8594 1472.1909 1494.0659 1518.3977 1532.9666 1545.1218 1576.7166 1601.0486 1625.3801 1637.5354 1661.8669 1686.1985 1708.0735 1720.2288 1732.384 1756.7156 1781.0471 1805.3787 1829.7107 1841.8655 1854.0208 1878.3523 1902.6843 1914.8391 1936.7141 1948.8694 1973.2009 1987.7703 2009.6453 2021.8005 2046.1321 2055.8518 2065.572 2089.9036 2106.0959 2115.0256 2136.9006 2149.0559 2158.7756 2195.2195 2219.5515 2243.8831 2268.2146"
         y="946.15637"
         id="tspan174"
         style="stroke-width:3.125">In any other case, the storyteller scores 3 points as does any player who has found the storyteller’s image.</tspan></text><path
       d="m 190.25743,996.15629 c 0,0.8284 -0.1586,1.6259 -0.4758,2.3916 -0.3172,0.7656 -0.7688,1.4415 -1.3548,2.02781 -0.5861,0.5859 -1.262,1.0375 -2.0277,1.3547 -0.7657,0.3168 -1.5629,0.4756 -2.3917,0.4759 -0.8288,-3e-4 -1.6261,-0.1594 -2.3918,-0.4759 -0.7657,-0.3172 -1.4416,-0.7688 -2.0277,-1.3547 -0.586,-0.58631 -1.0376,-1.26221 -1.3548,-2.02781 -0.3172,-0.7657 -0.4757,-1.5632 -0.4757,-2.3916 0,-0.8291 0.1585,-1.6266 0.4757,-2.3922 0.3172,-0.7656 0.7688,-1.4415 1.3548,-2.0275 0.5861,-0.5859 1.262,-1.0375 2.0277,-1.355 0.7657,-0.3169 1.563,-0.4753 2.3918,-0.4753 0.8288,0 1.626,0.1594 2.3917,0.4756 0.7657,0.3172 1.4416,0.7688 2.0277,1.3547 0.586,0.586 1.0376,1.2619 1.3548,2.0275 0.3172,0.7656 0.4758,1.5631 0.4758,2.3922 z"
       style="fill:#333333;fill-opacity:1;fill-rule:nonzero;stroke:none;stroke-width:3.125"
       id="path178" /><text
       style="font-variant:normal;font-weight:normal;font-size:43.75px;font-family:'Liberation Sans';-inkscape-font-specification:LiberationSans;writing-mode:lr-tb;fill:#333333;fill-opacity:1;fill-rule:nonzero;stroke:none;stroke-width:3.125"
       id="text182"
       x="224.63226"
       y="1008.6564"><tspan
         x="224.63226 253.81317 278.14496 300.01996 324.3515 336.50677 360.83832 370.55829 394.88983 416.76483 441.09662 455.66571 467.82074 482.38983 506.72162 518.87665 543.20844 567.54004 582.10913 594.2644 606.41943 630.75122 655.08276 679.41455 691.56958 703.72485 728.0564 752.38818 764.54321 786.41821 798.57349 822.90503 837.47412 859.34912 871.50439 895.83594 905.55591 915.27563 939.60742 954.17645 968.74554 980.90057 1002.7756 1024.6506 1048.9824 1063.5515 1087.8831 1109.7581 1121.9133 1146.2449 1170.5767 1194.9082 1207.0635 1231.395 1255.7268 1280.0583 1304.3901 1326.2651 1338.4202 1362.752 1387.0835 1396.8035 1421.135 1433.2903 1445.4453 1457.6006 1481.9321 1496.5012 1508.6565 1532.988 1557.3196 1579.1946 1603.5266 1615.6814 1637.5564 1661.8884 1674.0432 1698.3752 1710.53 1734.8621 1759.1936 1773.7625 1798.0945 1822.426 1846.7576 1858.9128 1883.2444 1905.1194 1917.2747 1929.4299 1953.7615 1978.093 1987.8127 2002.3821 2014.5374 2024.2571 2060.7014 2085.033 2109.3645 2133.696 2145.8513 2158.0066 2189.6013 2199.321 2211.4763 2235.8079 2247.9631 2272.2947 2284.45 2294.1697 2303.8899 2340.3337 2350.0535"
         y="1008.6564"
         id="tspan180"
         style="stroke-width:3.125">Each player (other than the storyteller) scores one bonus point for each vote earned by their image, with a limit</tspan></text><text
       style="font-variant:normal;font-weight:normal;font-size:43.75px;font-family:'Liberation Sans';-inkscape-font-specification:LiberationSans;writing-mode:lr-tb;fill:#333333;fill-opacity:1;fill-rule:nonzero;stroke:none;stroke-width:3.125"
       id="text186"
       x="224.63226"
       y="1071.1564"><tspan
         x="224.63226 248.96405 261.11908 273.27435 297.6059 309.76117 334.09271 358.4245 382.75604 407.08783 428.96283 441.11786 465.44965 489.78119 499.50116 523.8327 535.98798 557.86298 570.01807 606.46216 630.79395 652.66895 662.38867 698.83276 723.16455 759.60864 771.76367 786.33276 810.66455 832.53955 856.87109 881.20288 893.35791 903.07788 915.23291 927.38818 939.54321 963.87494 988.20648 997.92645 1012.4956 1024.6506 1034.3706 1070.8147 1095.1462 1119.478 1143.8096 1155.9648 1180.2964 1204.6282 1226.5032 1238.6582 1262.99 1287.3215 1301.8906 1326.2224 1350.554 1374.8857 1387.0408 1423.4849 1447.8167 1462.3857 1486.7173 1498.8726 1511.0276 1535.3591 1559.6912 1584.0227 1596.178 1620.5095 1632.6648 1654.5398 1678.8713 1691.0266 1715.3582 1737.2332 1751.802"
         y="1071.1564"
         id="tspan184"
         style="stroke-width:3.125">of 3 bonus points maximum (even if their image has earned more than 3 votes).</tspan></text><path
       d="m 190.25743,1121.1563 c 0,0.8284 -0.1586,1.6253 -0.4758,2.3909 -0.3172,0.7657 -0.7688,1.4416 -1.3548,2.0282 -0.5861,0.5853 -1.262,1.0371 -2.0277,1.3543 -0.7657,0.3172 -1.5629,0.4763 -2.3917,0.4766 -0.8288,-3e-4 -1.6261,-0.1594 -2.3918,-0.4766 -0.7657,-0.3172 -1.4416,-0.769 -2.0277,-1.3543 -0.586,-0.5866 -1.0376,-1.2625 -1.3548,-2.0282 -0.3172,-0.7656 -0.4757,-1.5625 -0.4757,-2.3909 0,-0.8291 0.1585,-1.6266 0.4757,-2.3925 0.3172,-0.7656 0.7688,-1.4412 1.3548,-2.0272 0.5861,-0.5862 1.262,-1.0375 2.0277,-1.3547 0.7657,-0.3168 1.563,-0.4756 2.3918,-0.4756 0.8288,0 1.626,0.1594 2.3917,0.4756 0.7657,0.3172 1.4416,0.7685 2.0277,1.3547 0.586,0.586 1.0376,1.2619 1.3548,2.0275 0.3172,0.7656 0.4758,1.5631 0.4758,2.3922 z"
       style="fill:#333333;fill-opacity:1;fill-rule:nonzero;stroke:none;stroke-width:3.125"
       id="path188" /><text
       style="font-variant:normal;font-weight:normal;font-size:43.75px;font-family:'Liberation Sans';-inkscape-font-specification:LiberationSans;writing-mode:lr-tb;fill:#333333;fill-opacity:1;fill-rule:nonzero;stroke:none;stroke-width:3.125"
       id="text192"
       x="224.63226"
       y="1133.6564"><tspan
         x="224.63226 253.81317 263.53314 287.86469 309.73969 334.07147 348.64056 370.51556 382.67059 414.26556 438.59711 462.92889 475.08392 496.95892 521.29071 533.44574 557.77753 582.10913 594.2644 606.41943 630.75122 645.32031 657.47534 681.80713 706.13867 715.85864 737.73364 749.88867 774.22046 798.552 822.88379 835.03882 844.75879 881.20288 905.53442 929.86621 954.19769 966.35297 988.22797 1010.103 1034.4346 1049.0037 1073.3354 1085.4905 1109.8223 1121.9773 1146.3091 1168.1841 1180.3391 1194.9082 1219.24 1231.395 1255.7268 1280.0583 1289.7783 1314.1099 1326.2651 1338.4202 1348.1401 1360.2952 1372.4504 1384.6055 1408.9373 1433.2688 1455.1438 1467.2991 1491.6306 1515.9624 1537.8372 1562.1692 1574.324 1586.4792 1610.8108 1635.1428 1659.4744 1683.8059 1695.9612 1708.1165 1732.448 1756.7795 1768.9348 1790.8098 1802.9651 1827.2966 1841.8655 1863.7405 1875.8958 1900.2273 1909.9475 1919.6672 1943.9988 1960.1917 1969.1208 1990.9958 2003.1511 2012.8708 2049.3152 2073.6467 2097.9783 2122.3103"
         y="1133.6564"
         id="tspan190"
         style="stroke-width:3.125">Players who voted for only one image score 1 extra point if they have found the storyteller’s image.</tspan></text><text
       style="font-variant:normal;font-weight:bold;font-size:43.75px;font-family:'Liberation Sans';-inkscape-font-specification:LiberationSans-Bold;writing-mode:lr-tb;fill:#333333;fill-opacity:1;fill-rule:nonzero;stroke:none;stroke-width:3.125"
       id="text196"
       x="49.63221"
       y="1305.5314"><tspan
         x="49.63221 78.813179 105.53754 132.26166 144.41693 171.14105 185.71014 197.86542 221.34247 248.06683 265.09247"
         y="1305.5314"
         id="tspan194"
         style="stroke-width:3.125">End of Turn</tspan></text><text
       style="font-variant:normal;font-weight:normal;font-size:43.75px;font-family:'Liberation Sans';-inkscape-font-specification:LiberationSans;writing-mode:lr-tb;fill:#333333;fill-opacity:1;fill-rule:nonzero;stroke:none;stroke-width:3.125"
       id="text200"
       x="49.63221"
       y="1424.2814"><tspan
         x="49.63221 78.813179 103.14497 125.01997 149.3515 161.50677 185.83832 195.55829 219.88983 241.76483 266.09662 280.66571 292.82074 307.38983 331.72162 343.87665 353.59662 363.31635 373.03632 394.91132 407.06635 419.22162 443.55316 467.88495 477.60468 492.17377 504.32904 528.66058 552.99237 577.32397 601.65576 613.81079 638.14258 662.47412 684.34912 706.22412 718.37939 742.71094 767.04272 779.19775 791.35303 815.68457 827.83984 852.17139 864.32666 874.04639 910.49048 934.82227 959.15381 983.48553 995.64056 1017.5156 1041.8474 1056.4165 1080.748 1102.623 1114.7783 1126.9333 1139.0886 1151.2437 1163.3989 1175.554 1199.8857 1224.2173 1238.7864 1263.1182 1275.2732 1299.605 1314.1741 1338.5056 1362.8374 1372.5571 1384.7124 1396.8674 1421.1992 1445.5308 1469.8625 1494.1941 1518.5256 1542.8577 1555.0125 1564.7327 1601.1765 1625.5081 1649.8401 1674.1716 1686.3269 1708.2019 1732.5334 1747.1023 1771.4343 1793.3093 1805.4641 1815.1843 1839.5159 1851.6711 1863.8259 1888.158 1912.4895 1924.6448 1948.9763 1963.5452 1987.8772 2019.4719 2031.6272 2055.9587 2065.6785 2075.3987 2099.7302 2111.8855 2124.0403 2148.3723 2162.9412 2175.0964 2199.428 2223.7595 2245.6345 2269.9666 2282.1213 2306.4534 2316.1731 2340.5046 2362.3796 2386.7112"
         y="1424.2814"
         id="tspan198"
         style="stroke-width:3.125">Each player refills their hand back up to 6 image cards. If there aren’t enough image cards in the draw pile for each player</tspan></text><text
       style="font-variant:normal;font-weight:normal;font-size:43.75px;font-family:'Liberation Sans';-inkscape-font-specification:LiberationSans;writing-mode:lr-tb;fill:#333333;fill-opacity:1;fill-rule:nonzero;stroke:none;stroke-width:3.125"
       id="text204"
       x="49.63221"
       y="1486.7814"><tspan
         x="49.63221 61.787544 86.119087 98.274361 112.84345 137.17499 149.33026 159.04999 168.76996 178.48969 190.64496 202.79999 227.13177 251.46332 261.18329 275.75238 287.90741 312.2392 336.57074 360.90253 385.23407 397.38934 409.54462 421.69965 446.03119 470.36298 482.51801 506.84979 516.56952 538.44452 560.31958 584.65137 599.22046 623.552 647.88379 672.21533 684.37061 694.09033 730.53442 754.86621 779.19775 803.52954 815.68457 837.55957 861.89136 876.46045 900.79199 922.66699 934.82227 959.15381 973.72284 998.05463 1010.2097 1032.0847 1056.4165 1080.748 1092.1128 1104.2681 1113.9878 1138.3196 1162.6511 1174.8064 1186.9614 1211.2932 1223.4482 1235.6035 1259.9351 1274.5042 1310.9482 1323.1035 1347.4351 1359.5903 1383.9219 1408.2537 1439.8484 1452.0037 1476.3352 1490.9043 1515.2361 1546.8308 1558.9861 1583.3176 1593.0374 1602.7576 1627.0891 1639.2444 1650.6091 1677.3333 1701.6648 1725.9963 1738.1516 1762.4832 1786.8152 1818.4099 1830.5652 1852.4402 1864.595 1888.927 1903.4958 1925.3708 1937.5261 1961.8577 1971.5774 1981.2976 2005.6292 2020.198 2032.3533 2044.5085 2068.8401 2083.4094 2095.5647 2107.7195 2132.0515 2156.3831 2168.5383 2192.8699 2217.2014 2239.0764 2251.2317 2263.387 2275.5417 2299.8738 2314.4426 2338.7742 2350.9294 2360.6492"
         y="1486.7814"
         id="tspan202"
         style="stroke-width:3.125">to refill their hand, the discarded image cards are shuffled to form a new draw pile. The new storyteller for the next turn is</tspan></text><text
       style="font-variant:normal;font-weight:normal;font-size:43.75px;font-family:'Liberation Sans';-inkscape-font-specification:LiberationSans;writing-mode:lr-tb;fill:#333333;fill-opacity:1;fill-rule:nonzero;stroke:none;stroke-width:3.125"
       id="text208"
       x="49.63221"
       y="1549.2814"><tspan
         x="49.63221 61.787544 86.119087 110.45087 122.6059 146.93768 156.65741 180.9892 202.8642 227.19574 241.76483 253.9201 266.07513 290.40692 302.56195 314.71722 339.04877 363.38055 375.53558 385.25555 409.5871 421.74237 433.8974 446.05267 470.38422 482.53949 494.69452 506.84979 531.18134 555.51312 567.66821 592 606.56909 630.90063 652.77563 662.49561 686.82715 711.15894 733.03394 745.18896 767.06396 779.21924 803.55078 818.11987 839.99487 852.15015 876.48169 886.20166 895.92139 920.25317 934.82227 946.97723 961.54633 985.87811 1010.2097 1034.5415 1046.6965 1068.5715 1092.9033 1105.0583 1129.3901 1153.7217 1165.877 1178.032 1199.907 1209.627 1233.9585 1255.8335 1277.7085 1309.3035 1319.0232 1340.8982 1365.23 1377.385 1389.5403 1401.6953 1426.0271 1440.5962 1452.7512 1464.9065 1489.238 1513.5698 1525.7249 1547.5999 1571.9314 1596.2634 1618.1384 1642.47 1666.8015 1691.1331 1715.4651 1739.7966 1751.9519 1764.1067 1788.4387 1812.7703 1849.2141 1873.5461 1885.7009 1897.8562 1922.1877 1936.7571 1961.0886 1982.9636 1997.533"
         y="1549.2814"
         id="tspan206"
         style="stroke-width:3.125">the player to the left of the previous storyteller (and so on, clockwise, for the subsequent game turns).</tspan></text><text
       style="font-variant:normal;font-weight:bold;font-size:109.375px;font-family:'Liberation Sans';-inkscape-font-specification:LiberationSans-Bold;writing-mode:lr-tb;fill:#fccb8e;fill-opacity:1;fill-rule:nonzero;stroke:none;stroke-width:3.125"
       id="text212"
       x="99.632271"
       y="1727.4064"><tspan
         x="99.632271 172.58466 239.3952 306.20575 336.59369 403.40424 439.82709 470.21503 506.63763 573.44824 634.27759 664.66528 749.74072 810.56982 907.82178"
         y="1727.4064"
         id="tspan210"
         style="stroke-width:3.125">End of the Game</tspan></text><text
       style="font-variant:normal;font-weight:normal;font-size:43.75px;font-family:'Liberation Sans';-inkscape-font-specification:LiberationSans;writing-mode:lr-tb;fill:#333333;fill-opacity:1;fill-rule:nonzero;stroke:none;stroke-width:3.125"
       id="text216"
       x="49.63221"
       y="1855.5314"><tspan
         x="49.63221 76.356636 100.68818 125.01997 137.17499 161.50677 185.83832 222.28241 246.6142 258.76923 283.10101 307.43256 331.76434 353.63934 365.79462 390.12616 402.28119 414.43646 426.59149 450.92328 475.25482 487.4101 511.74164 536.07343 560.40503 572.5603 596.89185 609.04712 621.20215 645.53394 657.68896 669.84424 694.17578 708.74487 733.07666 745.23169 769.56348 793.89502 808.46411 818.18408 842.51562 866.84741 879.00244 910.59741 934.92896 944.64886 966.52386 990.85541 1003.0107 1027.3423 1039.4976 1063.8291 1073.5491 1097.8806 1119.7556 1144.0874 1158.6565 1170.8115 1185.3806 1209.7124 1234.0439 1255.9189 1280.2507 1304.5823 1326.4573 1338.6125 1362.9441 1377.5132 1389.6685 1414 1435.875 1457.75 1482.0818 1506.4133 1530.7449 1552.6199 1564.7751 1589.1067 1613.4387 1625.5935 1649.9255 1674.2571 1683.9768 1708.3083 1720.4636 1742.3386 1754.4939 1765.8586 1792.5828 1816.9143 1841.2463 1853.4011 1877.7332 1887.4529 1911.7844 1933.6594 1957.991 1972.5603 1984.7156 2016.3103 2026.03 2038.1853 2062.5168 2074.6721 2086.8274 2111.1589 2135.4905 2147.6458 2184.0901 2208.4216 2230.2966 2242.4519 2254.6067 2278.9387 2303.2703 2312.99 2337.3215 2349.4768"
         y="1855.5314"
         id="tspan214"
         style="stroke-width:3.125">The game ends at the end of a turn during which a player reaches or exceeds 30 points. The player with the most points</tspan></text><text
       style="font-variant:normal;font-weight:normal;font-size:43.75px;font-family:'Liberation Sans';-inkscape-font-specification:LiberationSans;writing-mode:lr-tb;fill:#333333;fill-opacity:1;fill-rule:nonzero;stroke:none;stroke-width:3.125"
       id="text220"
       x="49.63221"
       y="1918.0314"><tspan
         x="49.63221 81.227242 90.946968 115.27876 137.15375 149.30878 161.46405 185.79559 210.12738 222.28241 246.6142 270.94574 307.38983 331.72162 343.87665 356.03192 368.18695 392.51874 404.67377 426.54877 450.88055 472.75555 497.0871 509.24237 533.57391 545.72919 557.88422 582.21606 594.37109 606.52637 616.24609 640.57788 652.73291 664.88818 677.04321 701.375 725.70654 737.86182 750.01685 759.73682 784.06836 808.40015 820.55518 844.88696 854.60669 878.93848 900.81348 925.14502 939.71411 961.58905 973.74432 995.61932 1019.9509 1044.2827 1058.8518 1083.1833 1095.3386 1107.4937 1131.8254 1156.157 1168.3123 1190.1873 1199.907 1221.782 1233.9373 1258.2688 1272.8379 1291.4658"
         y="1918.0314"
         id="tspan218"
         style="stroke-width:3.125">wins the game. In case of a tie, the tied players share the victory.</tspan></text><text
       style="font-variant:normal;font-weight:bold;font-size:109.375px;font-family:'Liberation Sans';-inkscape-font-specification:LiberationSans-Bold;writing-mode:lr-tb;fill:#fccb8e;fill-opacity:1;fill-rule:nonzero;stroke:none;stroke-width:3.125"
       id="text224"
       x="99.632271"
       y="2096.1562"><tspan
         x="99.632271 160.46161 190.8493 263.8017 294.18964 355.01874 415.84784 476.67694 519.24139 549.62933 634.70483 695.53394 792.78589"
         y="2096.1562"
         id="tspan222"
         style="stroke-width:3.125">3 Player Game</tspan></text><text
       style="font-variant:normal;font-weight:normal;font-size:43.75px;font-family:'Liberation Sans';-inkscape-font-specification:LiberationSans;writing-mode:lr-tb;fill:#333333;fill-opacity:1;fill-rule:nonzero;stroke:none;stroke-width:3.125"
       id="text228"
       x="49.63221"
       y="2224.2812"><tspan
         x="49.63221 78.813179 88.53315 112.86469 134.73969 159.07147 173.64056 195.51556 207.67059 229.54559 253.87738 278.20892 302.54071 312.26044 336.59222 348.74725 373.07904 397.41058 419.28558 443.61737 455.7724 477.6474 501.97919 523.85419 548.18573 572.51758 584.67261 594.39258 630.83667 655.16821 679.5 703.83154 715.98682 737.86182 762.19336 776.76245 801.09424 822.96924 835.12427 844.84424 869.17578 881.33105 893.48608 917.81787 942.14941 951.86932 966.43842 978.59344 1002.9252 1027.2568 1051.5886 1075.9202 1088.0754 1097.7952 1122.127 1144.002 1156.157 1180.4888 1204.8203 1229.1521 1241.3071 1265.6389 1277.7939 1289.9492 1311.8242 1321.5439 1343.4189 1355.5742 1366.939 1393.6631 1417.9949 1442.3264 1454.4817 1478.8132 1488.5332 1512.8647 1534.74 1559.0715 1573.6404 1595.5154 1607.6707 1622.24 1646.5715 1668.4465 1690.3215 1714.6531 1738.9846 1751.1399 1763.2952 1775.4504 1799.782 1814.3508 1826.5061 1838.6614 1862.9929 1887.3245 1899.4797 1921.3547 1933.51 1957.8416 1972.4109 1994.2859 2006.4407 2030.7727 2040.4924 2050.2122 2074.5442 2089.113 2103.6824 2115.8372 2140.1692 2164.5007 2186.3757 2210.7073 2222.8625 2247.1941 2271.5256 2295.8577 2320.1892 2332.3445 2342.0642 2366.3958 2378.551 2390.7063 2422.301"
         y="2224.2812"
         id="tspan226"
         style="stroke-width:3.125">Players should have seven image cards in their hand instead of six. The players (except for the storyteller) each hand in two</tspan></text><text
       style="font-variant:normal;font-weight:normal;font-size:43.75px;font-family:'Liberation Sans';-inkscape-font-specification:LiberationSans;writing-mode:lr-tb;fill:#333333;fill-opacity:1;fill-rule:nonzero;stroke:none;stroke-width:3.125"
       id="text232"
       x="49.63221"
       y="2286.7812"><tspan
         x="49.63221 59.352242 95.796333 120.12788 144.45966 168.7912 180.94647 202.82147 227.15302 241.72211 266.05389 287.92889 300.08392 314.65302 324.37299 348.70453 370.57953 382.7348 407.06635 431.39813 455.72968 467.88495 492.21649 504.37177 516.52679 526.24677 550.57831 572.45337 584.60864 596.76367 621.09546 645.427 669.75879 684.32788 696.48291 707.84766 734.57202 758.90356 768.62354 790.49854 802.65356 834.24854 858.58008 877.20801 889.36328 901.51831 925.8501 938.00513 947.72504 984.16913 1008.5007 1032.8325 1057.1641 1069.3193 1091.1943 1115.5259 1130.095 1154.4268 1176.3018 1188.4568 1212.7886 1227.3577 1251.6892 1263.8445 1288.176 1297.896 1329.4907 1353.8225 1375.6975 1397.5725 1409.7275 1424.2966 1448.6284 1470.5034 1494.835 1519.1667 1528.8865 1553.218 1577.55 1589.7048 1601.8601 1626.1917 1650.5237 1674.8552 1687.0105 1711.342 1721.0618 1745.3933 1767.2683 1791.6003 1806.1692 1828.0442 1840.1995 1876.6433 1900.9753 1922.8503 1935.0051 1947.1604 1969.0354 1981.1907 1990.9104 2000.6301 2010.3503 2022.5051 2034.6604 2044.3801 2068.7122 2093.0437 2105.199 2117.3542 2141.6858 2166.0173 2178.1726 2200.0476 2212.2029 2236.5344 2251.1033 2272.9783 2285.1335 2309.4651 2319.1853 2328.905 2353.2366 2369.4294 2378.3586"
         y="2286.7812"
         id="tspan230"
         style="stroke-width:3.125">image cards (instead of just one). This way, 5 image cards are always revealed, and players must still find the storyteller’s</tspan></text><text
       style="font-variant:normal;font-weight:normal;font-size:43.75px;font-family:'Liberation Sans';-inkscape-font-specification:LiberationSans;writing-mode:lr-tb;fill:#333333;fill-opacity:1;fill-rule:nonzero;stroke:none;stroke-width:3.125"
       id="text236"
       x="49.63221"
       y="2349.2812"><tspan
         x="49.63221 59.352242 95.796333 120.12788 144.45966 168.7912 180.94647 205.27802 241.72211 266.05389 290.38544 314.71722 326.87225 339.02753 363.35907 387.69086 409.56586 433.8974"
         y="2349.2812"
         id="tspan234"
         style="stroke-width:3.125">image among those.</tspan></text></g></svg>
